999
dxfrw 0.5.11
0
SECTION
2
HEADER
9
$ACADVER
1
AC1021
9
$HANDSEED
5
20000
9
$DWGCODEPAGE
3
ANSI_1252
9
$INSBASE
10
0
20
0
30
0
9
$EXTMIN
10
0.00585938
20
0.00542535
30
0
9
$EXTMAX
10
19.1251
20
11.2795
30
0
9
$LIMMIN
10
0
20
0
9
$LIMMAX
10
420
20
297
9
$ORTHOMODE
70
0
9
$LTSCALE
40
1
9
$TEXTSTYLE
7
STANDARD
9
$CLAYER
8
0
9
$DIMASZ
40
2.5
9
$DIMLFAC
40
1
9
$DIMSCALE
40
1
9
$DIMEXO
40
0.625
9
$DIMEXE
40
1.25
9
$DIMTXT
40
2.5
9
$DIMTSZ
40
0
9
$DIMAUNIT
70
0
9
$DIMADEC
70
0
9
$DIMLUNIT
70
2
9
$DIMSTYLE
2
Standard
9
$DIMGAP
40
0.625
9
$DIMTIH
70
0
9
$LUNITS
70
2
9
$LUPREC
70
4
9
$AUNITS
70
0
9
$AUPREC
70
2
9
$SPLINESEGS
70
8
9
$SNAPSTYLE
70
0
9
$PINSBASE
10
0
20
0
30
0
9
$PLIMMIN
10
0
20
0
9
$PLIMMAX
10
210
20
297
9
$INSUNITS
70
4
9
$PSVPSCALE
40
1
0
ENDSEC
0
SECTION
2
CLASSES
0
ENDSEC
0
SECTION
2
TABLES
0
TABLE
2
VPORT
5
8
330
0
100
AcDbSymbolTable
70
1
0
VPORT
5
31
330
2
100
AcDbSymbolTableRecord
100
AcDbViewportTableRecord
2
*ACTIVE
70
0
10
0
20
0
11
1
21
1
12
13.3895605453
22
6.4961380352
13
0
23
0
14
10
24
10
15
10
25
10
16
0
26
0
36
1
17
0
27
0
37
0
40
13.7438953472
41
1.95
42
50
43
0
44
0
50
0
51
0
71
0
72
100
73
1
74
3
75
0
76
1
77
0
78
0
281
0
65
1
110
0
120
0
130
0
111
1
121
0
131
0
112
0
122
1
132
0
79
0
146
0
348
10020
60
7
61
5
292
1
282
1
141
0
142
0
63
250
421
3358443
0
ENDTAB
0
TABLE
2
LTYPE
5
5
330
0
100
AcDbSymbolTable
70
4
0
LTYPE
5
14
330
5
100
AcDbSymbolTableRecord
100
AcDbLinetypeTableRecord
2
ByBlock
70
0
3

72
65
73
0
40
0
0
LTYPE
5
15
330
5
100
AcDbSymbolTableRecord
100
AcDbLinetypeTableRecord
2
ByLayer
70
0
3

72
65
73
0
40
0
0
LTYPE
5
16
330
5
100
AcDbSymbolTableRecord
100
AcDbLinetypeTableRecord
2
Continuous
70
0
3
Solid line
72
65
73
0
40
0
0
LTYPE
5
32
330
5
100
AcDbSymbolTableRecord
100
AcDbLinetypeTableRecord
2
DOT
70
0
3
Dot . . . . . . . . . . . . . . . . . . . . . .
72
65
73
2
40
6.35
49
0
74
0
49
-6.35
74
0
0
LTYPE
5
33
330
5
100
AcDbSymbolTableRecord
100
AcDbLinetypeTableRecord
2
DOT2
70
0
3
Dot (.5x) .....................................
72
65
73
2
40
3.175
49
0
74
0
49
-3.175
74
0
0
LTYPE
5
34
330
5
100
AcDbSymbolTableRecord
100
AcDbLinetypeTableRecord
2
DOTX2
70
0
3
Dot (2x) .  .  .  .  .  .  .  .  .  .  .  .  .
72
65
73
2
40
12.7
49
0
74
0
49
-12.7
74
0
0
LTYPE
5
35
330
5
100
AcDbSymbolTableRecord
100
AcDbLinetypeTableRecord
2
DASHED
70
0
3
Dot . . . . . . . . . . . . . . . . . . . . . .
72
65
73
2
40
19.05
49
12.7
74
0
49
-6.35
74
0
0
LTYPE
5
36
330
5
100
AcDbSymbolTableRecord
100
AcDbLinetypeTableRecord
2
DASHED2
70
0
3
Dashed (.5x) _ _ _ _ _ _ _ _ _ _ _ _ _ _ _ _ _
72
65
73
2
40
9.525
49
6.35
74
0
49
-3.175
74
0
0
LTYPE
5
37
330
5
100
AcDbSymbolTableRecord
100
AcDbLinetypeTableRecord
2
DASHEDX2
70
0
3
Dashed (2x) ____  ____  ____  ____  ____  ___
72
65
73
2
40
38.1
49
25.4
74
0
49
-12.7
74
0
0
LTYPE
5
38
330
5
100
AcDbSymbolTableRecord
100
AcDbLinetypeTableRecord
2
DASHDOT
70
0
3
Dash dot __ . __ . __ . __ . __ . __ . __ . __
72
65
73
4
40
25.4
49
12.7
74
0
49
-6.35
74
0
49
0
74
0
49
-6.35
74
0
0
LTYPE
5
39
330
5
100
AcDbSymbolTableRecord
100
AcDbLinetypeTableRecord
2
DASHDOT2
70
0
3
Dash dot (.5x) _._._._._._._._._._._._._._._.
72
65
73
4
40
12.7
49
6.35
74
0
49
-3.175
74
0
49
0
74
0
49
-3.175
74
0
0
LTYPE
5
3A
330
5
100
AcDbSymbolTableRecord
100
AcDbLinetypeTableRecord
2
DASHDOTX2
70
0
3
Dash dot (2x) ____  .  ____  .  ____  .  ___
72
65
73
4
40
50.8
49
25.4
74
0
49
-12.7
74
0
49
0
74
0
49
-12.7
74
0
0
LTYPE
5
3B
330
5
100
AcDbSymbolTableRecord
100
AcDbLinetypeTableRecord
2
DIVIDE
70
0
3
Divide ____ . . ____ . . ____ . . ____ . . ____
72
65
73
6
40
31.75
49
12.7
74
0
49
-6.35
74
0
49
0
74
0
49
-6.35
74
0
49
0
74
0
49
-6.35
74
0
0
LTYPE
5
3C
330
5
100
AcDbSymbolTableRecord
100
AcDbLinetypeTableRecord
2
DIVIDE2
70
0
3
Divide (.5x) __..__..__..__..__..__..__..__.._
72
65
73
6
40
15.875
49
6.35
74
0
49
-3.175
74
0
49
0
74
0
49
-3.175
74
0
49
0
74
0
49
-3.175
74
0
0
LTYPE
5
3D
330
5
100
AcDbSymbolTableRecord
100
AcDbLinetypeTableRecord
2
DIVIDEX2
70
0
3
Divide (2x) ________  .  .  ________  .  .  _
72
65
73
6
40
63.5
49
25.4
74
0
49
-12.7
74
0
49
0
74
0
49
-12.7
74
0
49
0
74
0
49
-12.7
74
0
0
LTYPE
5
3E
330
5
100
AcDbSymbolTableRecord
100
AcDbLinetypeTableRecord
2
BORDER
70
0
3
Border __ __ . __ __ . __ __ . __ __ . __ __ .
72
65
73
6
40
44.45
49
12.7
74
0
49
-6.35
74
0
49
12.7
74
0
49
-6.35
74
0
49
0
74
0
49
-6.35
74
0
0
LTYPE
5
3F
330
5
100
AcDbSymbolTableRecord
100
AcDbLinetypeTableRecord
2
BORDER2
70
0
3
Border (.5x) __.__.__.__.__.__.__.__.__.__.__.
72
65
73
6
40
22.225
49
6.35
74
0
49
-3.175
74
0
49
6.35
74
0
49
-3.175
74
0
49
0
74
0
49
-3.175
74
0
0
LTYPE
5
40
330
5
100
AcDbSymbolTableRecord
100
AcDbLinetypeTableRecord
2
BORDERX2
70
0
3
Border (2x) ____  ____  .  ____  ____  .  ___
72
65
73
6
40
88.9
49
25.4
74
0
49
-12.7
74
0
49
25.4
74
0
49
-12.7
74
0
49
0
74
0
49
-12.7
74
0
0
LTYPE
5
41
330
5
100
AcDbSymbolTableRecord
100
AcDbLinetypeTableRecord
2
CENTER
70
0
3
Center ____ _ ____ _ ____ _ ____ _ ____ _ ____
72
65
73
4
40
50.8
49
31.75
74
0
49
-6.35
74
0
49
6.35
74
0
49
-6.35
74
0
0
LTYPE
5
42
330
5
100
AcDbSymbolTableRecord
100
AcDbLinetypeTableRecord
2
CENTER2
70
0
3
Center (.5x) ___ _ ___ _ ___ _ ___ _ ___ _ ___
72
65
73
4
40
28.575
49
19.05
74
0
49
-3.175
74
0
49
3.175
74
0
49
-3.175
74
0
0
LTYPE
5
43
330
5
100
AcDbSymbolTableRecord
100
AcDbLinetypeTableRecord
2
CENTERX2
70
0
3
Center (2x) ________  __  ________  __  _____
72
65
73
4
40
101.6
49
63.5
74
0
49
-12.7
74
0
49
12.7
74
0
49
-12.7
74
0
0
ENDTAB
0
TABLE
2
LAYER
5
2
330
0
100
AcDbSymbolTable
70
1
0
LAYER
5
10
330
2
100
AcDbSymbolTableRecord
100
AcDbLayerTableRecord
2
0
70
0
62
7
6
CONTINUOUS
370
-3
390
F
0
ENDTAB
0
TABLE
2
STYLE
5
3
330
0
100
AcDbSymbolTable
70
3
0
STYLE
5
44
330
2
100
AcDbSymbolTableRecord
100
AcDbTextStyleTableRecord
2
Standard
70
0
40
0
41
1
50
0
71
0
42
1
3
txt
4

0
ENDTAB
0
TABLE
2
VIEW
5
6
330
0
100
AcDbSymbolTable
70
0
0
ENDTAB
0
TABLE
2
UCS
5
7
330
0
100
AcDbSymbolTable
70
0
0
ENDTAB
0
TABLE
2
APPID
5
9
330
0
100
AcDbSymbolTable
70
1
0
APPID
5
12
330
9
100
AcDbSymbolTableRecord
100
AcDbRegAppTableRecord
2
ACAD
70
0
0
ENDTAB
0
TABLE
2
DIMSTYLE
5
A
330
0
100
AcDbSymbolTable
70
1
100
AcDbDimStyleTable
71
1
0
DIMSTYLE
105
45
330
A
100
AcDbSymbolTableRecord
100
AcDbDimStyleTableRecord
2
Standard
70
0
40
1
41
2.5
42
0.625
43
0.38
44
1.25
45
0
46
0
47
0
48
0
140
2.5
141
0.09
142
0
143
25.4
144
1
145
0
146
1
147
0.625
148
0
71
0
72
0
73
0
74
1
75
0
76
0
77
0
78
0
79
0
170
0
171
2
172
0
173
0
174
0
175
0
176
0
177
0
178
0
179
0
271
4
272
4
273
2
274
2
275
0
276
0
277
2
278
46
279
0
280
0
281
0
282
0
283
1
284
0
285
0
286
0
288
0
289
3
340
Standard
341

371
-2
372
-2
0
ENDTAB
0
TABLE
2
BLOCK_RECORD
5
1
330
0
100
AcDbSymbolTable
70
2
0
BLOCK_RECORD
5
1F
330
1
100
AcDbSymbolTableRecord
100
AcDbBlockTableRecord
2
*Model_Space
70
0
280
1
281
0
0
BLOCK_RECORD
5
1E
330
1
100
AcDbSymbolTableRecord
100
AcDbBlockTableRecord
2
*Paper_Space
70
0
280
1
281
0
0
ENDTAB
0
ENDSEC
0
SECTION
2
BLOCKS
0
BLOCK
5
20
330
1F
100
AcDbEntity
8
0
100
AcDbBlockBegin
2
*Model_Space
70
0
10
0
20
0
30
0
3
*Model_Space
1

0
ENDBLK
5
21
330
1F
100
AcDbEntity
8
0
100
AcDbBlockEnd
0
BLOCK
5
1C
330
1B
100
AcDbEntity
8
0
100
AcDbBlockBegin
2
*Paper_Space
70
0
10
0
20
0
30
0
3
*Paper_Space
1

0
ENDBLK
5
1D
330
1F
100
AcDbEntity
8
0
100
AcDbBlockEnd
0
ENDSEC
0
SECTION
2
ENTITIES
0
LWPOLYLINE
5
46
100
AcDbEntity
8
0
6
ByLayer
62
0
370
-1
100
AcDbPolyline
90
2
70
0
43
0
10
6.10558
20
1.67432
10
1.59928
20
1.24013
0
LWPOLYLINE
5
47
100
AcDbEntity
8
0
6
ByLayer
62
0
370
-1
100
AcDbPolyline
90
2
70
0
43
0
10
1.64865
20
0.0613064
10
6.17546
20
0.00542535
0
LWPOLYLINE
5
48
100
AcDbEntity
8
0
6
ByLayer
62
0
370
-1
100
AcDbPolyline
90
2
70
0
43
0
10
0.350424
20
1.03782
10
1.49869
20
1.23188
0
LWPOLYLINE
5
49
100
AcDbEntity
8
0
6
ByLayer
62
0
370
-1
100
AcDbPolyline
90
2
70
0
43
0
10
0.350424
20
0.261393
10
1.49869
20
0.0673286
0
LWPOLYLINE
5
4A
100
AcDbEntity
8
0
6
ByLayer
62
0
370
-1
100
AcDbPolyline
90
2
70
0
43
0
10
0.0302735
20
0.728353
10
0.418674
20
0.728353
0
LWPOLYLINE
5
4B
100
AcDbEntity
8
0
6
ByLayer
62
0
370
-1
100
AcDbPolyline
90
2
70
0
43
0
10
0.0302735
20
0.570856
10
0.418674
20
0.570856
0
LWPOLYLINE
5
4C
100
AcDbEntity
8
0
6
ByLayer
62
0
370
-1
100
AcDbPolyline
90
2
70
0
43
0
10
0.418674
20
0.570856
10
0.418674
20
0.728353
0
LWPOLYLINE
5
4D
100
AcDbEntity
8
0
6
ByLayer
62
0
370
-1
100
AcDbPolyline
90
9
70
0
43
0
10
0.350424
20
1.03782
10
0.293078
20
1.02355
10
0.238499
20
1.00087
10
0.187879
20
0.970378
10
0.142415
20
0.932671
10
0.10319
20
0.88851
10
0.0709636
20
0.838975
10
0.046441
20
0.785211
10
0.0302735
20
0.728353
0
LWPOLYLINE
5
4E
100
AcDbEntity
8
0
6
ByLayer
62
0
370
-1
100
AcDbPolyline
90
9
70
0
43
0
10
0.0302735
20
0.570856
10
0.046441
20
0.514051
10
0.0709636
20
0.460286
10
0.10319
20
0.410753
10
0.142415
20
0.366536
10
0.187879
20
0.328885
10
0.238499
20
0.298394
10
0.293078
20
0.275717
10
0.350424
20
0.261393
0
LWPOLYLINE
5
4F
100
AcDbEntity
8
0
6
ByLayer
62
0
370
-1
100
AcDbPolyline
90
2
70
0
43
0
10
1.59928
20
1.24013
10
1.49869
20
1.23188
0
LWPOLYLINE
5
50
100
AcDbEntity
8
0
6
ByLayer
62
0
370
-1
100
AcDbPolyline
90
2
70
0
43
0
10
1.49869
20
0.0673286
10
1.64865
20
0.0613064
0
LWPOLYLINE
5
51
100
AcDbEntity
8
0
6
ByLayer
62
0
370
-1
100
AcDbPolyline
90
2
70
0
43
0
10
6.17546
20
0.00542535
10
6.73172
20
0.0287001
0
LWPOLYLINE
5
52
100
AcDbEntity
8
0
6
ByLayer
62
0
370
-1
100
AcDbPolyline
90
2
70
0
43
0
10
6.14518
20
0.728299
10
5.73025
20
0.728299
0
LWPOLYLINE
5
53
100
AcDbEntity
8
0
6
ByLayer
62
0
370
-1
100
AcDbPolyline
90
2
70
0
43
0
10
5.73025
20
0.728299
10
5.73025
20
0.570856
0
LWPOLYLINE
5
54
100
AcDbEntity
8
0
6
ByLayer
62
0
370
-1
100
AcDbPolyline
90
2
70
0
43
0
10
6.14518
20
0.570801
10
6.14518
20
0.728299
0
LWPOLYLINE
5
55
100
AcDbEntity
8
0
6
ByLayer
62
0
370
-1
100
AcDbPolyline
90
2
70
0
43
0
10
6.10558
20
1.67432
10
6.66183
20
1.6976
0
LWPOLYLINE
5
56
100
AcDbEntity
8
0
6
ByLayer
62
0
370
-1
100
AcDbPolyline
90
2
70
0
43
0
10
6.66183
20
1.6976
10
6.73172
20
0.0287001
0
LWPOLYLINE
5
57
100
AcDbEntity
8
0
6
ByLayer
62
0
370
-1
100
AcDbPolyline
90
2
70
0
43
0
10
5.73025
20
0.570856
10
6.14518
20
0.570801
0
LWPOLYLINE
5
58
100
AcDbEntity
8
0
6
ByLayer
62
0
370
-1
100
AcDbPolyline
90
2
70
0
43
0
10
0.632053
20
1.19971
10
5.13829
20
1.63385
0
LWPOLYLINE
5
59
100
AcDbEntity
8
0
6
ByLayer
62
0
370
-1
100
AcDbPolyline
90
2
70
0
43
0
10
5.08897
20
2.81272
10
0.562175
20
2.86854
0
LWPOLYLINE
5
5A
100
AcDbEntity
8
0
6
ByLayer
62
0
370
-1
100
AcDbPolyline
90
2
70
0
43
0
10
6.38715
20
1.83621
10
5.23888
20
1.64208
0
LWPOLYLINE
5
5B
100
AcDbEntity
8
0
6
ByLayer
62
0
370
-1
100
AcDbPolyline
90
2
70
0
43
0
10
6.38715
20
2.61257
10
5.23888
20
2.80669
0
LWPOLYLINE
5
5C
100
AcDbEntity
8
0
6
ByLayer
62
0
370
-1
100
AcDbPolyline
90
2
70
0
43
0
10
6.70731
20
2.14567
10
6.3189
20
2.14567
0
LWPOLYLINE
5
5D
100
AcDbEntity
8
0
6
ByLayer
62
0
370
-1
100
AcDbPolyline
90
2
70
0
43
0
10
6.70731
20
2.30311
10
6.3189
20
2.30311
0
LWPOLYLINE
5
5E
100
AcDbEntity
8
0
6
ByLayer
62
0
370
-1
100
AcDbPolyline
90
2
70
0
43
0
10
6.3189
20
2.30311
10
6.3189
20
2.14567
0
LWPOLYLINE
5
5F
100
AcDbEntity
8
0
6
ByLayer
62
0
370
-1
100
AcDbPolyline
90
9
70
0
43
0
10
6.38715
20
1.83621
10
6.4445
20
1.85047
10
6.49903
20
1.87315
10
6.54964
20
1.90364
10
6.59517
20
1.94129
10
6.63439
20
1.98551
10
6.66656
20
2.0351
10
6.69108
20
2.08886
10
6.70731
20
2.14567
0
LWPOLYLINE
5
60
100
AcDbEntity
8
0
6
ByLayer
62
0
370
-1
100
AcDbPolyline
90
9
70
0
43
0
10
6.70731
20
2.30311
10
6.69108
20
2.35997
10
6.66656
20
2.41374
10
6.63439
20
2.46326
10
6.59517
20
2.50743
10
6.54964
20
2.54519
10
6.49903
20
2.57568
10
6.4445
20
2.59836
10
6.38715
20
2.61257
0
LWPOLYLINE
5
61
100
AcDbEntity
8
0
6
ByLayer
62
0
370
-1
100
AcDbPolyline
90
2
70
0
43
0
10
5.13829
20
1.63385
10
5.23888
20
1.64208
0
LWPOLYLINE
5
62
100
AcDbEntity
8
0
6
ByLayer
62
0
370
-1
100
AcDbPolyline
90
2
70
0
43
0
10
5.23888
20
2.80669
10
5.08897
20
2.81272
0
LWPOLYLINE
5
63
100
AcDbEntity
8
0
6
ByLayer
62
0
370
-1
100
AcDbPolyline
90
2
70
0
43
0
10
0.562175
20
2.86854
10
0.00585938
20
2.84526
0
LWPOLYLINE
5
64
100
AcDbEntity
8
0
6
ByLayer
62
0
370
-1
100
AcDbPolyline
90
2
70
0
43
0
10
0.592393
20
2.14567
10
1.00732
20
2.14567
0
LWPOLYLINE
5
65
100
AcDbEntity
8
0
6
ByLayer
62
0
370
-1
100
AcDbPolyline
90
2
70
0
43
0
10
1.00732
20
2.14567
10
1.00732
20
2.30317
0
LWPOLYLINE
5
66
100
AcDbEntity
8
0
6
ByLayer
62
0
370
-1
100
AcDbPolyline
90
2
70
0
43
0
10
0.592447
20
2.30317
10
0.592393
20
2.14567
0
LWPOLYLINE
5
67
100
AcDbEntity
8
0
6
ByLayer
62
0
370
-1
100
AcDbPolyline
90
2
70
0
43
0
10
0.632053
20
1.19971
10
0.0757378
20
1.17638
0
LWPOLYLINE
5
68
100
AcDbEntity
8
0
6
ByLayer
62
0
370
-1
100
AcDbPolyline
90
2
70
0
43
0
10
0.0757378
20
1.17638
10
0.00585938
20
2.84526
0
LWPOLYLINE
5
69
100
AcDbEntity
8
0
6
ByLayer
62
0
370
-1
100
AcDbPolyline
90
2
70
0
43
0
10
1.00732
20
2.30317
10
0.592447
20
2.30317
0
LWPOLYLINE
5
6A
100
AcDbEntity
8
0
6
ByLayer
62
0
370
-1
100
AcDbPolyline
90
2
70
0
43
0
10
0.632053
20
4.82389
10
5.13829
20
4.38975
0
LWPOLYLINE
5
6B
100
AcDbEntity
8
0
6
ByLayer
62
0
370
-1
100
AcDbPolyline
90
2
70
0
43
0
10
5.08897
20
3.21089
10
0.562175
20
3.15506
0
LWPOLYLINE
5
6C
100
AcDbEntity
8
0
6
ByLayer
62
0
370
-1
100
AcDbPolyline
90
2
70
0
43
0
10
6.38715
20
4.18739
10
5.23888
20
4.38151
0
LWPOLYLINE
5
6D
100
AcDbEntity
8
0
6
ByLayer
62
0
370
-1
100
AcDbPolyline
90
2
70
0
43
0
10
6.38715
20
3.41103
10
5.23888
20
3.2169
0
LWPOLYLINE
5
6E
100
AcDbEntity
8
0
6
ByLayer
62
0
370
-1
100
AcDbPolyline
90
2
70
0
43
0
10
6.70731
20
3.87793
10
6.3189
20
3.87793
0
LWPOLYLINE
5
6F
100
AcDbEntity
8
0
6
ByLayer
62
0
370
-1
100
AcDbPolyline
90
2
70
0
43
0
10
6.70731
20
3.72049
10
6.3189
20
3.72049
0
LWPOLYLINE
5
70
100
AcDbEntity
8
0
6
ByLayer
62
0
370
-1
100
AcDbPolyline
90
2
70
0
43
0
10
6.3189
20
3.72049
10
6.3189
20
3.87793
0
LWPOLYLINE
5
71
100
AcDbEntity
8
0
6
ByLayer
62
0
370
-1
100
AcDbPolyline
90
9
70
0
43
0
10
6.70731
20
3.87793
10
6.69108
20
3.93479
10
6.66656
20
3.98856
10
6.63439
20
4.03814
10
6.59517
20
4.08231
10
6.54964
20
4.12001
10
6.49903
20
4.1505
10
6.4445
20
4.17318
10
6.38715
20
4.18739
0
LWPOLYLINE
5
72
100
AcDbEntity
8
0
6
ByLayer
62
0
370
-1
100
AcDbPolyline
90
9
70
0
43
0
10
6.38715
20
3.41103
10
6.4445
20
3.42529
10
6.49903
20
3.44797
10
6.54964
20
3.47846
10
6.59517
20
3.51617
10
6.63439
20
3.56039
10
6.66656
20
3.60992
10
6.69108
20
3.66368
10
6.70731
20
3.72049
0
LWPOLYLINE
5
73
100
AcDbEntity
8
0
6
ByLayer
62
0
370
-1
100
AcDbPolyline
90
2
70
0
43
0
10
5.23888
20
4.38151
10
5.13829
20
4.38975
0
LWPOLYLINE
5
74
100
AcDbEntity
8
0
6
ByLayer
62
0
370
-1
100
AcDbPolyline
90
2
70
0
43
0
10
5.08897
20
3.21089
10
5.23888
20
3.2169
0
LWPOLYLINE
5
75
100
AcDbEntity
8
0
6
ByLayer
62
0
370
-1
100
AcDbPolyline
90
2
70
0
43
0
10
0.562175
20
3.15506
10
0.00585938
20
3.17833
0
LWPOLYLINE
5
76
100
AcDbEntity
8
0
6
ByLayer
62
0
370
-1
100
AcDbPolyline
90
2
70
0
43
0
10
0.592393
20
3.87793
10
1.00732
20
3.87793
0
LWPOLYLINE
5
77
100
AcDbEntity
8
0
6
ByLayer
62
0
370
-1
100
AcDbPolyline
90
2
70
0
43
0
10
1.00732
20
3.87793
10
1.00732
20
3.72043
0
LWPOLYLINE
5
78
100
AcDbEntity
8
0
6
ByLayer
62
0
370
-1
100
AcDbPolyline
90
2
70
0
43
0
10
0.592447
20
3.72043
10
0.592393
20
3.87793
0
LWPOLYLINE
5
79
100
AcDbEntity
8
0
6
ByLayer
62
0
370
-1
100
AcDbPolyline
90
2
70
0
43
0
10
0.632053
20
4.82389
10
0.0757378
20
4.84717
0
LWPOLYLINE
5
7A
100
AcDbEntity
8
0
6
ByLayer
62
0
370
-1
100
AcDbPolyline
90
2
70
0
43
0
10
0.0757378
20
4.84717
10
0.00585938
20
3.17833
0
LWPOLYLINE
5
7B
100
AcDbEntity
8
0
6
ByLayer
62
0
370
-1
100
AcDbPolyline
90
2
70
0
43
0
10
1.00732
20
3.72043
10
0.592393
20
3.72043
0
LWPOLYLINE
5
7C
100
AcDbEntity
8
0
6
ByLayer
62
0
370
-1
100
AcDbPolyline
90
2
70
0
43
0
10
6.10558
20
4.34928
10
1.59928
20
4.78347
0
LWPOLYLINE
5
7D
100
AcDbEntity
8
0
6
ByLayer
62
0
370
-1
100
AcDbPolyline
90
2
70
0
43
0
10
1.64865
20
5.96229
10
6.17546
20
6.01818
0
LWPOLYLINE
5
7E
100
AcDbEntity
8
0
6
ByLayer
62
0
370
-1
100
AcDbPolyline
90
2
70
0
43
0
10
0.350424
20
4.98579
10
1.49869
20
4.79172
0
LWPOLYLINE
5
7F
100
AcDbEntity
8
0
6
ByLayer
62
0
370
-1
100
AcDbPolyline
90
2
70
0
43
0
10
0.350424
20
5.76221
10
1.49869
20
5.95628
0
LWPOLYLINE
5
80
100
AcDbEntity
8
0
6
ByLayer
62
0
370
-1
100
AcDbPolyline
90
2
70
0
43
0
10
0.0302735
20
5.29525
10
0.418674
20
5.29525
0
LWPOLYLINE
5
81
100
AcDbEntity
8
0
6
ByLayer
62
0
370
-1
100
AcDbPolyline
90
2
70
0
43
0
10
0.0302735
20
5.45275
10
0.418674
20
5.45275
0
LWPOLYLINE
5
82
100
AcDbEntity
8
0
6
ByLayer
62
0
370
-1
100
AcDbPolyline
90
2
70
0
43
0
10
0.418674
20
5.45275
10
0.418674
20
5.29525
0
LWPOLYLINE
5
83
100
AcDbEntity
8
0
6
ByLayer
62
0
370
-1
100
AcDbPolyline
90
9
70
0
43
0
10
0.0302735
20
5.29525
10
0.046441
20
5.23844
10
0.0709636
20
5.18468
10
0.10319
20
5.13514
10
0.142415
20
5.09093
10
0.187879
20
5.05328
10
0.238499
20
5.02279
10
0.293078
20
5.00011
10
0.350424
20
4.98579
0
LWPOLYLINE
5
84
100
AcDbEntity
8
0
6
ByLayer
62
0
370
-1
100
AcDbPolyline
90
9
70
0
43
0
10
0.350424
20
5.76221
10
0.293078
20
5.74794
10
0.238499
20
5.72526
10
0.187879
20
5.69476
10
0.142415
20
5.65707
10
0.10319
20
5.6129
10
0.0709636
20
5.56336
10
0.046441
20
5.5096
10
0.0302735
20
5.45275
0
LWPOLYLINE
5
85
100
AcDbEntity
8
0
6
ByLayer
62
0
370
-1
100
AcDbPolyline
90
2
70
0
43
0
10
1.49869
20
4.79172
10
1.59928
20
4.78347
0
LWPOLYLINE
5
86
100
AcDbEntity
8
0
6
ByLayer
62
0
370
-1
100
AcDbPolyline
90
2
70
0
43
0
10
1.64865
20
5.96229
10
1.49869
20
5.95628
0
LWPOLYLINE
5
87
100
AcDbEntity
8
0
6
ByLayer
62
0
370
-1
100
AcDbPolyline
90
2
70
0
43
0
10
6.17546
20
6.01818
10
6.73172
20
5.9949
0
LWPOLYLINE
5
88
100
AcDbEntity
8
0
6
ByLayer
62
0
370
-1
100
AcDbPolyline
90
2
70
0
43
0
10
6.14518
20
5.29531
10
5.73025
20
5.29531
0
LWPOLYLINE
5
89
100
AcDbEntity
8
0
6
ByLayer
62
0
370
-1
100
AcDbPolyline
90
2
70
0
43
0
10
5.73025
20
5.29531
10
5.73025
20
5.45275
0
LWPOLYLINE
5
8A
100
AcDbEntity
8
0
6
ByLayer
62
0
370
-1
100
AcDbPolyline
90
2
70
0
43
0
10
6.14518
20
5.45275
10
6.14518
20
5.29531
0
LWPOLYLINE
5
8B
100
AcDbEntity
8
0
6
ByLayer
62
0
370
-1
100
AcDbPolyline
90
2
70
0
43
0
10
6.10558
20
4.34928
10
6.66183
20
4.32601
0
LWPOLYLINE
5
8C
100
AcDbEntity
8
0
6
ByLayer
62
0
370
-1
100
AcDbPolyline
90
2
70
0
43
0
10
6.66183
20
4.32601
10
6.73172
20
5.9949
0
LWPOLYLINE
5
8D
100
AcDbEntity
8
0
6
ByLayer
62
0
370
-1
100
AcDbPolyline
90
2
70
0
43
0
10
5.73025
20
5.45275
10
6.14518
20
5.45275
0
LWPOLYLINE
5
8E
100
AcDbEntity
8
0
6
ByLayer
62
0
370
-1
100
AcDbPolyline
90
17
70
1
43
0
10
6.49739
20
5.1721
10
6.49089
20
5.20182
10
6.47347
20
5.227
10
6.44835
20
5.24442
10
6.41868
20
5.25092
10
6.38889
20
5.24442
10
6.36376
20
5.227
10
6.34636
20
5.20182
10
6.3399
20
5.1721
10
6.3464
20
5.14247
10
6.36382
20
5.11735
10
6.38894
20
5.09993
10
6.41868
20
5.09343
10
6.44829
20
5.09993
10
6.47342
20
5.11735
10
6.49083
20
5.14247
10
6.49739
20
5.1721
0
LWPOLYLINE
5
8F
100
AcDbEntity
8
0
6
ByLayer
62
0
370
-1
100
AcDbPolyline
90
17
70
1
43
0
10
0.397678
20
4.00114
10
0.391168
20
4.03082
10
0.373753
20
4.05599
10
0.348633
20
4.0734
10
0.318956
20
4.07986
10
0.289225
20
4.0734
10
0.264106
20
4.05599
10
0.24669
20
4.03082
10
0.240181
20
4.00114
10
0.24669
20
3.97146
10
0.264106
20
3.94629
10
0.289225
20
3.92887
10
0.318956
20
3.92236
10
0.348633
20
3.92887
10
0.373753
20
3.94629
10
0.391168
20
3.97146
10
0.397678
20
4.00114
0
LWPOLYLINE
5
90
100
AcDbEntity
8
0
6
ByLayer
62
0
370
-1
100
AcDbPolyline
90
17
70
1
43
0
10
0.397678
20
2.02246
10
0.391168
20
2.05219
10
0.373753
20
2.07731
10
0.348633
20
2.09472
10
0.318956
20
2.10124
10
0.289225
20
2.09472
10
0.264106
20
2.07731
10
0.24669
20
2.05219
10
0.240181
20
2.02246
10
0.24669
20
1.99283
10
0.264106
20
1.96767
10
0.289225
20
1.95025
10
0.318956
20
1.94374
10
0.348633
20
1.95025
10
0.373753
20
1.96767
10
0.391168
20
1.99283
10
0.397678
20
2.02246
0
LWPOLYLINE
5
91
100
AcDbEntity
8
0
6
ByLayer
62
0
370
-1
100
AcDbPolyline
90
17
70
1
43
0
10
6.49739
20
0.851508
10
6.49089
20
0.881239
10
6.47347
20
0.906413
10
6.44835
20
0.923828
10
6.41868
20
0.930339
10
6.38889
20
0.923828
10
6.36376
20
0.906413
10
6.34636
20
0.881239
10
6.3399
20
0.851508
10
6.3464
20
0.821886
10
6.36382
20
0.796767
10
6.38894
20
0.779351
10
6.41868
20
0.77284
10
6.44829
20
0.779351
10
6.47342
20
0.796767
10
6.49083
20
0.821886
10
6.49739
20
0.851508
0
LWPOLYLINE
5
92
100
AcDbEntity
8
0
6
ByLayer
62
0
370
-1
100
AcDbPolyline
90
2
70
0
43
0
10
1.00662
20
11.2795
10
0.219183
20
10.0984
0
LWPOLYLINE
5
93
100
AcDbEntity
8
0
6
ByLayer
62
0
370
-1
100
AcDbPolyline
90
2
70
0
43
0
10
0.219183
20
10.0984
10
0.219183
20
7.73622
0
LWPOLYLINE
5
94
100
AcDbEntity
8
0
6
ByLayer
62
0
370
-1
100
AcDbPolyline
90
2
70
0
43
0
10
3.36882
20
7.73622
10
3.36882
20
10.0984
0
LWPOLYLINE
5
95
100
AcDbEntity
8
0
6
ByLayer
62
0
370
-1
100
AcDbPolyline
90
2
70
0
43
0
10
3.36882
20
10.0984
10
2.58137
20
11.2795
0
LWPOLYLINE
5
96
100
AcDbEntity
8
0
6
ByLayer
62
0
370
-1
100
AcDbPolyline
90
2
70
0
43
0
10
2.58137
20
11.2795
10
1.00662
20
11.2795
0
LWPOLYLINE
5
97
100
AcDbEntity
8
0
6
ByLayer
62
0
370
-1
100
AcDbPolyline
90
2
70
0
43
0
10
0.219183
20
7.73622
10
1.00662
20
6.1614
0
LWPOLYLINE
5
98
100
AcDbEntity
8
0
6
ByLayer
62
0
370
-1
100
AcDbPolyline
90
2
70
0
43
0
10
1.00662
20
6.1614
10
2.58137
20
6.1614
0
LWPOLYLINE
5
99
100
AcDbEntity
8
0
6
ByLayer
62
0
370
-1
100
AcDbPolyline
90
2
70
0
43
0
10
2.58137
20
6.1614
10
3.36882
20
7.73622
0
LWPOLYLINE
5
9A
100
AcDbEntity
8
0
6
ByLayer
62
0
370
-1
100
AcDbPolyline
90
2
70
0
43
0
10
0.722276
20
7.45551
10
0.615722
20
7.5714
0
LWPOLYLINE
5
9B
100
AcDbEntity
8
0
6
ByLayer
62
0
370
-1
100
AcDbPolyline
90
2
70
0
43
0
10
0.954156
20
7.66868
10
0.847547
20
7.78461
0
LWPOLYLINE
5
9C
100
AcDbEntity
8
0
6
ByLayer
62
0
370
-1
100
AcDbPolyline
90
2
70
0
43
0
10
0.615722
20
7.5714
10
0.847547
20
7.78461
0
LWPOLYLINE
5
9D
100
AcDbEntity
8
0
6
ByLayer
62
0
370
-1
100
AcDbPolyline
90
2
70
0
43
0
10
0.954156
20
7.66868
10
0.722276
20
7.45551
0
LWPOLYLINE
5
9E
100
AcDbEntity
8
0
6
ByLayer
62
0
370
-1
100
AcDbPolyline
90
2
70
0
43
0
10
2.86567
20
7.45551
10
2.97228
20
7.5714
0
LWPOLYLINE
5
9F
100
AcDbEntity
8
0
6
ByLayer
62
0
370
-1
100
AcDbPolyline
90
2
70
0
43
0
10
2.63385
20
7.66868
10
2.74044
20
7.78461
0
LWPOLYLINE
5
A0
100
AcDbEntity
8
0
6
ByLayer
62
0
370
-1
100
AcDbPolyline
90
2
70
0
43
0
10
2.97228
20
7.5714
10
2.74044
20
7.78461
0
LWPOLYLINE
5
A1
100
AcDbEntity
8
0
6
ByLayer
62
0
370
-1
100
AcDbPolyline
90
2
70
0
43
0
10
2.63385
20
7.66868
10
2.86567
20
7.45551
0
LWPOLYLINE
5
A2
100
AcDbEntity
8
0
6
ByLayer
62
0
370
-1
100
AcDbPolyline
90
2
70
0
43
0
10
0.722276
20
10.3791
10
0.615722
20
10.2632
0
LWPOLYLINE
5
A3
100
AcDbEntity
8
0
6
ByLayer
62
0
370
-1
100
AcDbPolyline
90
2
70
0
43
0
10
0.954156
20
10.1659
10
0.847547
20
10.05
0
LWPOLYLINE
5
A4
100
AcDbEntity
8
0
6
ByLayer
62
0
370
-1
100
AcDbPolyline
90
2
70
0
43
0
10
0.615722
20
10.2632
10
0.847547
20
10.05
0
LWPOLYLINE
5
A5
100
AcDbEntity
8
0
6
ByLayer
62
0
370
-1
100
AcDbPolyline
90
2
70
0
43
0
10
0.954156
20
10.1659
10
0.722276
20
10.3791
0
LWPOLYLINE
5
A6
100
AcDbEntity
8
0
6
ByLayer
62
0
370
-1
100
AcDbPolyline
90
2
70
0
43
0
10
2.86567
20
10.3791
10
2.97228
20
10.2632
0
LWPOLYLINE
5
A7
100
AcDbEntity
8
0
6
ByLayer
62
0
370
-1
100
AcDbPolyline
90
2
70
0
43
0
10
2.63385
20
10.1659
10
2.74044
20
10.05
0
LWPOLYLINE
5
A8
100
AcDbEntity
8
0
6
ByLayer
62
0
370
-1
100
AcDbPolyline
90
2
70
0
43
0
10
2.97228
20
10.2632
10
2.74044
20
10.05
0
LWPOLYLINE
5
A9
100
AcDbEntity
8
0
6
ByLayer
62
0
370
-1
100
AcDbPolyline
90
2
70
0
43
0
10
2.63385
20
10.1659
10
2.86567
20
10.3791
0
LWPOLYLINE
5
AA
100
AcDbEntity
8
0
6
ByLayer
62
0
370
-1
100
AcDbPolyline
90
17
70
1
43
0
10
0.691624
20
10.0984
10
0.685112
20
10.1282
10
0.667697
20
10.1533
10
0.642578
20
10.1707
10
0.612901
20
10.1771
10
0.583171
20
10.1707
10
0.558051
20
10.1533
10
0.540636
20
10.1282
10
0.534179
20
10.0984
10
0.540636
20
10.0687
10
0.558051
20
10.0436
10
0.583171
20
10.0262
10
0.612901
20
10.0197
10
0.642578
20
10.0262
10
0.667697
20
10.0436
10
0.685112
20
10.0687
10
0.691624
20
10.0984
0
LWPOLYLINE
5
AB
100
AcDbEntity
8
0
6
ByLayer
62
0
370
-1
100
AcDbPolyline
90
17
70
1
43
0
10
3.05382
20
10.0984
10
3.04731
20
10.1282
10
3.02989
20
10.1533
10
3.00478
20
10.1707
10
2.9751
20
10.1771
10
2.94536
20
10.1707
10
2.92025
20
10.1533
10
2.90283
20
10.1282
10
2.89638
20
10.0984
10
2.90283
20
10.0687
10
2.92025
20
10.0436
10
2.94536
20
10.0262
10
2.9751
20
10.0197
10
3.00478
20
10.0262
10
3.02989
20
10.0436
10
3.04731
20
10.0687
10
3.05382
20
10.0984
0
LWPOLYLINE
5
AC
100
AcDbEntity
8
0
6
ByLayer
62
0
370
-1
100
AcDbPolyline
90
17
70
1
43
0
10
3.05382
20
7.73622
10
3.04731
20
7.76594
10
3.02989
20
7.79107
10
3.00478
20
7.80849
10
2.9751
20
7.81494
10
2.94536
20
7.80849
10
2.92025
20
7.79107
10
2.90283
20
7.76594
10
2.89638
20
7.73622
10
2.90283
20
7.70654
10
2.92025
20
7.68138
10
2.94536
20
7.66396
10
2.9751
20
7.65744
10
3.00478
20
7.66396
10
3.02989
20
7.68138
10
3.04731
20
7.70654
10
3.05382
20
7.73622
0
LWPOLYLINE
5
AD
100
AcDbEntity
8
0
6
ByLayer
62
0
370
-1
100
AcDbPolyline
90
17
70
1
43
0
10
0.691624
20
7.73622
10
0.685112
20
7.76594
10
0.667697
20
7.79107
10
0.642578
20
7.80849
10
0.612901
20
7.81494
10
0.583171
20
7.80849
10
0.558051
20
7.79107
10
0.540636
20
7.76594
10
0.534179
20
7.73622
10
0.540636
20
7.70654
10
0.558051
20
7.68138
10
0.583171
20
7.66396
10
0.612901
20
7.65744
10
0.642578
20
7.66396
10
0.667697
20
7.68138
10
0.685112
20
7.70654
10
0.691624
20
7.73622
0
LWPOLYLINE
5
AE
100
AcDbEntity
8
0
6
ByLayer
62
0
370
-1
100
AcDbPolyline
90
2
70
0
43
0
10
1.00662
20
8.6811
10
1.00662
20
9.15354
0
LWPOLYLINE
5
AF
100
AcDbEntity
8
0
6
ByLayer
62
0
370
-1
100
AcDbPolyline
90
2
70
0
43
0
10
0.849121
20
9.15354
10
0.849121
20
8.6811
0
LWPOLYLINE
5
B0
100
AcDbEntity
8
0
6
ByLayer
62
0
370
-1
100
AcDbPolyline
90
9
70
0
43
0
10
1.00662
20
9.15354
10
1.00011
20
9.18326
10
0.982693
20
9.20839
10
0.957519
20
9.22581
10
0.927843
20
9.23226
10
0.898113
20
9.22581
10
0.872993
20
9.20839
10
0.855578
20
9.18326
10
0.849121
20
9.15354
0
LWPOLYLINE
5
B1
100
AcDbEntity
8
0
6
ByLayer
62
0
370
-1
100
AcDbPolyline
90
9
70
0
43
0
10
0.849121
20
8.6811
10
0.855578
20
8.65142
10
0.872993
20
8.62631
10
0.898113
20
8.60889
10
0.927843
20
8.60237
10
0.957519
20
8.60889
10
0.982693
20
8.62631
10
1.00011
20
8.65142
10
1.00662
20
8.6811
0
LWPOLYLINE
5
B2
100
AcDbEntity
8
0
6
ByLayer
62
0
370
-1
100
AcDbPolyline
90
2
70
0
43
0
10
2.58137
20
8.6811
10
2.58137
20
9.15354
0
LWPOLYLINE
5
B3
100
AcDbEntity
8
0
6
ByLayer
62
0
370
-1
100
AcDbPolyline
90
2
70
0
43
0
10
2.73888
20
9.15354
10
2.73888
20
8.6811
0
LWPOLYLINE
5
B4
100
AcDbEntity
8
0
6
ByLayer
62
0
370
-1
100
AcDbPolyline
90
9
70
0
43
0
10
2.73888
20
9.15354
10
2.73236
20
9.18326
10
2.71496
20
9.20839
10
2.68983
20
9.22581
10
2.66015
20
9.23226
10
2.63043
20
9.22581
10
2.60531
20
9.20839
10
2.58789
20
9.18326
10
2.58137
20
9.15354
0
LWPOLYLINE
5
B5
100
AcDbEntity
8
0
6
ByLayer
62
0
370
-1
100
AcDbPolyline
90
9
70
0
43
0
10
2.58137
20
8.6811
10
2.58789
20
8.65142
10
2.60531
20
8.62631
10
2.63043
20
8.60889
10
2.66015
20
8.60237
10
2.68983
20
8.60889
10
2.71496
20
8.62631
10
2.73236
20
8.65142
10
2.73888
20
8.6811
0
LWPOLYLINE
5
B6
100
AcDbEntity
8
0
6
ByLayer
62
0
370
-1
100
AcDbPolyline
90
17
70
1
43
0
10
2.73888
20
9.80311
10
2.734
20
9.82547
10
2.72092
20
9.84435
10
2.7021
20
9.85736
10
2.67979
20
9.86225
10
2.6575
20
9.85736
10
2.63867
20
9.84435
10
2.6256
20
9.82547
10
2.62076
20
9.80311
10
2.6256
20
9.78088
10
2.63867
20
9.76199
10
2.6575
20
9.74892
10
2.67979
20
9.74403
10
2.7021
20
9.74892
10
2.72092
20
9.76199
10
2.734
20
9.78088
10
2.73888
20
9.80311
0
LWPOLYLINE
5
B7
100
AcDbEntity
8
0
6
ByLayer
62
0
370
-1
100
AcDbPolyline
90
17
70
1
43
0
10
0.967231
20
9.80311
10
0.962349
20
9.82547
10
0.949274
20
9.84435
10
0.930447
20
9.85736
10
0.908149
20
9.86225
10
0.88585
20
9.85736
10
0.867025
20
9.84435
10
0.85395
20
9.82547
10
0.849121
20
9.80311
10
0.85395
20
9.78088
10
0.867025
20
9.76199
10
0.88585
20
9.74892
10
0.908149
20
9.74403
10
0.930447
20
9.74892
10
0.949274
20
9.76199
10
0.962349
20
9.78088
10
0.967231
20
9.80311
0
LWPOLYLINE
5
B8
100
AcDbEntity
8
0
6
ByLayer
62
0
370
-1
100
AcDbPolyline
90
17
70
1
43
0
10
0.967231
20
8.03147
10
0.962349
20
8.05376
10
0.949274
20
8.07264
10
0.930447
20
8.08567
10
0.908149
20
8.09056
10
0.88585
20
8.08567
10
0.867025
20
8.07264
10
0.85395
20
8.05376
10
0.849121
20
8.03147
10
0.85395
20
8.00922
10
0.867025
20
7.99035
10
0.88585
20
7.97726
10
0.908149
20
7.97239
10
0.930447
20
7.97726
10
0.949274
20
7.99035
10
0.962349
20
8.00922
10
0.967231
20
8.03147
0
LWPOLYLINE
5
B9
100
AcDbEntity
8
0
6
ByLayer
62
0
370
-1
100
AcDbPolyline
90
17
70
1
43
0
10
2.73888
20
8.03147
10
2.734
20
8.05376
10
2.72092
20
8.07264
10
2.7021
20
8.08567
10
2.67979
20
8.09056
10
2.6575
20
8.08567
10
2.63867
20
8.07264
10
2.6256
20
8.05376
10
2.62076
20
8.03147
10
2.6256
20
8.00922
10
2.63867
20
7.99035
10
2.6575
20
7.97726
10
2.67979
20
7.97239
10
2.7021
20
7.97726
10
2.72092
20
7.99035
10
2.734
20
8.00922
10
2.73888
20
8.03147
0
LWPOLYLINE
5
BA
100
AcDbEntity
8
0
6
ByLayer
62
0
370
-1
100
AcDbPolyline
90
2
70
0
43
0
10
9.32206
20
5.74561
10
9.16456
20
6.16054
0
LWPOLYLINE
5
BB
100
AcDbEntity
8
0
6
ByLayer
62
0
370
-1
100
AcDbPolyline
90
2
70
0
43
0
10
10.2669
20
6.32454
10
10.4244
20
6.32454
0
LWPOLYLINE
5
BC
100
AcDbEntity
8
0
6
ByLayer
62
0
370
-1
100
AcDbPolyline
90
2
70
0
43
0
10
10.2669
20
6.63949
10
10.4244
20
6.63949
0
LWPOLYLINE
5
BD
100
AcDbEntity
8
0
6
ByLayer
62
0
370
-1
100
AcDbPolyline
90
2
70
0
43
0
10
10.4244
20
6.32454
10
10.4244
20
6.63949
0
LWPOLYLINE
5
BE
100
AcDbEntity
8
0
6
ByLayer
62
0
370
-1
100
AcDbPolyline
90
2
70
0
43
0
10
9.16456
20
6.16054
10
9.47954
20
6.16054
0
LWPOLYLINE
5
BF
100
AcDbEntity
8
0
6
ByLayer
62
0
370
-1
100
AcDbPolyline
90
2
70
0
43
0
10
9.32206
20
5.74561
10
9.47954
20
5.74561
0
LWPOLYLINE
5
C0
100
AcDbEntity
8
0
6
ByLayer
62
0
370
-1
100
AcDbPolyline
90
2
70
0
43
0
10
9.322
20
0.431369
10
9.47949
20
0.431369
0
LWPOLYLINE
5
C1
100
AcDbEntity
8
0
6
ByLayer
62
0
370
-1
100
AcDbPolyline
90
2
70
0
43
0
10
9.322
20
0.431369
10
9.322
20
0.823133
0
LWPOLYLINE
5
C2
100
AcDbEntity
8
0
6
ByLayer
62
0
370
-1
100
AcDbPolyline
90
9
70
0
43
0
10
9.322
20
0.823133
10
9.17236
20
0.79286
10
9.04531
20
0.708225
10
8.96078
20
0.581108
10
8.93067
20
0.431369
10
8.96078
20
0.281739
10
9.04531
20
0.154514
10
9.17236
20
0.0699869
10
9.322
20
0.0396593
0
LWPOLYLINE
5
C3
100
AcDbEntity
8
0
6
ByLayer
62
0
370
-1
100
AcDbPolyline
90
3
70
0
43
0
10
9.47949
20
0.0396593
10
9.60297
20
0.0598415
10
9.71403
20
0.117622
0
LWPOLYLINE
5
C4
100
AcDbEntity
8
0
6
ByLayer
62
0
370
-1
100
AcDbPolyline
90
2
70
0
43
0
10
9.322
20
0.0396593
10
9.47949
20
0.0396593
0
LWPOLYLINE
5
C5
100
AcDbEntity
8
0
6
ByLayer
62
0
370
-1
100
AcDbPolyline
90
2
70
0
43
0
10
10.2669
20
5.98031
10
10.2669
20
6.32454
0
LWPOLYLINE
5
C6
100
AcDbEntity
8
0
6
ByLayer
62
0
370
-1
100
AcDbPolyline
90
2
70
0
43
0
10
10.2669
20
5.98031
10
10.2836
20
5.90989
0
LWPOLYLINE
5
C7
100
AcDbEntity
8
0
6
ByLayer
62
0
370
-1
100
AcDbPolyline
90
2
70
0
43
0
10
9.71571
20
4.7621
10
9.47949
20
4.7621
0
LWPOLYLINE
5
C8
100
AcDbEntity
8
0
6
ByLayer
62
0
370
-1
100
AcDbPolyline
90
5
70
0
43
0
10
9.87321
20
4.6046
10
9.86106
20
4.66482
10
9.8271
20
4.71599
10
9.77587
20
4.75
10
9.71571
20
4.7621
0
LWPOLYLINE
5
C9
100
AcDbEntity
8
0
6
ByLayer
62
0
370
-1
100
AcDbPolyline
90
2
70
0
43
0
10
9.87321
20
4.6046
10
9.87321
20
2.95107
0
LWPOLYLINE
5
CA
100
AcDbEntity
8
0
6
ByLayer
62
0
370
-1
100
AcDbPolyline
90
2
70
0
43
0
10
9.71571
20
2.79363
10
9.47949
20
2.79363
0
LWPOLYLINE
5
CB
100
AcDbEntity
8
0
6
ByLayer
62
0
370
-1
100
AcDbPolyline
90
5
70
0
43
0
10
9.71571
20
2.79363
10
9.77587
20
2.80578
10
9.8271
20
2.83974
10
9.86106
20
2.8909
10
9.87321
20
2.95107
0
LWPOLYLINE
5
CC
100
AcDbEntity
8
0
6
ByLayer
62
0
370
-1
100
AcDbPolyline
90
2
70
0
43
0
10
9.71403
20
0.117622
10
10.5338
20
0.730306
0
LWPOLYLINE
5
CD
100
AcDbEntity
8
0
6
ByLayer
62
0
370
-1
100
AcDbPolyline
90
3
70
0
43
0
10
10.8142
20
0.863499
10
10.6674
20
0.810818
10
10.5338
20
0.730306
0
LWPOLYLINE
5
CE
100
AcDbEntity
8
0
6
ByLayer
62
0
370
-1
100
AcDbPolyline
90
2
70
0
43
0
10
11.8799
20
1.12994
10
10.8142
20
0.863499
0
LWPOLYLINE
5
CF
100
AcDbEntity
8
0
6
ByLayer
62
0
370
-1
100
AcDbPolyline
90
5
70
0
43
0
10
11.8799
20
1.12994
10
11.927
20
1.15115
10
11.9648
20
1.18658
10
11.99
20
1.23188
10
11.9992
20
1.28272
0
LWPOLYLINE
5
D0
100
AcDbEntity
8
0
6
ByLayer
62
0
370
-1
100
AcDbPolyline
90
2
70
0
43
0
10
11.9992
20
1.28272
10
11.9992
20
1.94228
0
LWPOLYLINE
5
D1
100
AcDbEntity
8
0
6
ByLayer
62
0
370
-1
100
AcDbPolyline
90
5
70
0
43
0
10
11.9992
20
1.94228
10
11.99
20
1.99317
10
11.9648
20
2.03847
10
11.927
20
2.07389
10
11.8799
20
2.09506
0
LWPOLYLINE
5
D2
100
AcDbEntity
8
0
6
ByLayer
62
0
370
-1
100
AcDbPolyline
90
2
70
0
43
0
10
11.2571
20
2.25082
10
11.8799
20
2.09506
0
LWPOLYLINE
5
D3
100
AcDbEntity
8
0
6
ByLayer
62
0
370
-1
100
AcDbPolyline
90
9
70
0
43
0
10
10.6606
20
3.01471
10
10.6716
20
2.88488
10
10.7038
20
2.75863
10
10.7561
20
2.63926
10
10.8274
20
2.53011
10
10.9159
20
2.43457
10
11.019
20
2.35487
10
11.1337
20
2.29297
10
11.2571
20
2.25082
0
LWPOLYLINE
5
D4
100
AcDbEntity
8
0
6
ByLayer
62
0
370
-1
100
AcDbPolyline
90
2
70
0
43
0
10
10.6606
20
4.96994
10
10.6606
20
3.01471
0
LWPOLYLINE
5
D5
100
AcDbEntity
8
0
6
ByLayer
62
0
370
-1
100
AcDbPolyline
90
2
70
0
43
0
10
10.2836
20
5.90989
10
10.5775
20
5.32206
0
LWPOLYLINE
5
D6
100
AcDbEntity
8
0
6
ByLayer
62
0
370
-1
100
AcDbPolyline
90
3
70
0
43
0
10
10.6606
20
4.96994
10
10.6394
20
5.15082
10
10.5775
20
5.32206
0
LWPOLYLINE
5
D7
100
AcDbEntity
8
0
6
ByLayer
62
0
370
-1
100
AcDbPolyline
90
2
70
0
43
0
10
9.47949
20
0.431369
10
9.47949
20
2.79363
0
LWPOLYLINE
5
D8
100
AcDbEntity
8
0
6
ByLayer
62
0
370
-1
100
AcDbPolyline
90
2
70
0
43
0
10
9.47954
20
4.7621
10
9.47954
20
5.74561
0
LWPOLYLINE
5
D9
100
AcDbEntity
8
0
6
ByLayer
62
0
370
-1
100
AcDbPolyline
90
2
70
0
43
0
10
10.7187
20
1.24544
10
10.5411
20
1.18571
0
LWPOLYLINE
5
DA
100
AcDbEntity
8
0
6
ByLayer
62
0
370
-1
100
AcDbPolyline
90
9
70
0
43
0
10
10.2669
20
1.36675
10
10.2731
20
1.31879
10
10.2908
20
1.27371
10
10.3186
20
1.2341
10
10.3553
20
1.20247
10
10.3987
20
1.18126
10
10.4461
20
1.17117
10
10.4945
20
1.17258
10
10.5411
20
1.18571
0
LWPOLYLINE
5
DB
100
AcDbEntity
8
0
6
ByLayer
62
0
370
-1
100
AcDbPolyline
90
2
70
0
43
0
10
10.2669
20
1.36675
10
10.2669
20
2.05029
0
LWPOLYLINE
5
DC
100
AcDbEntity
8
0
6
ByLayer
62
0
370
-1
100
AcDbPolyline
90
5
70
0
43
0
10
10.6044
20
2.1881
10
10.7259
20
2.08029
10
10.8609
20
1.99013
10
11.0071
20
1.91917
10
11.1616
20
1.86882
0
LWPOLYLINE
5
DD
100
AcDbEntity
8
0
6
ByLayer
62
0
370
-1
100
AcDbPolyline
90
9
70
0
43
0
10
10.6044
20
2.1881
10
10.5579
20
2.2226
10
10.5034
20
2.24214
10
10.4456
20
2.24582
10
10.3894
20
2.23258
10
10.3399
20
2.20264
10
10.3012
20
2.15956
10
10.2759
20
2.10742
10
10.2669
20
2.05029
0
LWPOLYLINE
5
DE
100
AcDbEntity
8
0
6
ByLayer
62
0
370
-1
100
AcDbPolyline
90
2
70
0
43
0
10
11.4862
20
1.43728
10
10.7187
20
1.24544
0
LWPOLYLINE
5
DF
100
AcDbEntity
8
0
6
ByLayer
62
0
370
-1
100
AcDbPolyline
90
5
70
0
43
0
10
11.4862
20
1.43728
10
11.5333
20
1.45856
10
11.5711
20
1.49397
10
11.5963
20
1.53928
10
11.6055
20
1.59006
0
LWPOLYLINE
5
E0
100
AcDbEntity
8
0
6
ByLayer
62
0
370
-1
100
AcDbPolyline
90
2
70
0
43
0
10
11.6055
20
1.59006
10
11.6055
20
1.63487
0
LWPOLYLINE
5
E1
100
AcDbEntity
8
0
6
ByLayer
62
0
370
-1
100
AcDbPolyline
90
2
70
0
43
0
10
11.1616
20
1.86882
10
11.4862
20
1.78765
0
LWPOLYLINE
5
E2
100
AcDbEntity
8
0
6
ByLayer
62
0
370
-1
100
AcDbPolyline
90
5
70
0
43
0
10
11.6055
20
1.63487
10
11.5963
20
1.68576
10
11.5711
20
1.73107
10
11.5333
20
1.7665
10
11.4862
20
1.78765
0
LWPOLYLINE
5
E3
100
AcDbEntity
8
0
6
ByLayer
62
0
370
-1
100
AcDbPolyline
90
2
70
0
43
0
10
10.2669
20
6.63949
10
10.2669
20
6.85878
0
LWPOLYLINE
5
E4
100
AcDbEntity
8
0
6
ByLayer
62
0
370
-1
100
AcDbPolyline
90
2
70
0
43
0
10
9.47954
20
6.16054
10
9.47954
20
6.73058
0
LWPOLYLINE
5
E5
100
AcDbEntity
8
0
6
ByLayer
62
0
370
-1
100
AcDbPolyline
90
2
70
0
43
0
10
9.16461
20
7.43728
10
9.32206
20
7.43728
0
LWPOLYLINE
5
E6
100
AcDbEntity
8
0
6
ByLayer
62
0
370
-1
100
AcDbPolyline
90
2
70
0
43
0
10
9.16461
20
7.43728
10
9.16461
20
7.6735
0
LWPOLYLINE
5
E7
100
AcDbEntity
8
0
6
ByLayer
62
0
370
-1
100
AcDbPolyline
90
2
70
0
43
0
10
9.32206
20
6.73058
10
9.32206
20
7.43728
0
LWPOLYLINE
5
E8
100
AcDbEntity
8
0
6
ByLayer
62
0
370
-1
100
AcDbPolyline
90
2
70
0
43
0
10
9.32206
20
6.73058
10
9.47954
20
6.73058
0
LWPOLYLINE
5
E9
100
AcDbEntity
8
0
6
ByLayer
62
0
370
-1
100
AcDbPolyline
90
2
70
0
43
0
10
9.16461
20
7.6735
10
9.71571
20
7.6735
0
LWPOLYLINE
5
EA
100
AcDbEntity
8
0
6
ByLayer
62
0
370
-1
100
AcDbPolyline
90
2
70
0
43
0
10
9.85471
20
6.95449
10
9.71571
20
7.6735
0
LWPOLYLINE
5
EB
100
AcDbEntity
8
0
6
ByLayer
62
0
370
-1
100
AcDbPolyline
90
2
70
0
43
0
10
9.97065
20
6.85878
10
10.2669
20
6.85878
0
LWPOLYLINE
5
EC
100
AcDbEntity
8
0
6
ByLayer
62
0
370
-1
100
AcDbPolyline
90
5
70
0
43
0
10
9.85471
20
6.95449
10
9.86951
20
6.91704
10
9.89615
20
6.88667
10
9.93104
20
6.86626
10
9.97065
20
6.85878
0
LWPOLYLINE
5
ED
100
AcDbEntity
8
0
6
ByLayer
62
0
370
-1
100
AcDbPolyline
90
2
70
0
43
0
10
11.9992
20
4.56597
10
12.1566
20
4.1511
0
LWPOLYLINE
5
EE
100
AcDbEntity
8
0
6
ByLayer
62
0
370
-1
100
AcDbPolyline
90
2
70
0
43
0
10
11.0543
20
3.98708
10
10.8968
20
3.98708
0
LWPOLYLINE
5
EF
100
AcDbEntity
8
0
6
ByLayer
62
0
370
-1
100
AcDbPolyline
90
2
70
0
43
0
10
11.0543
20
3.67215
10
10.8968
20
3.67215
0
LWPOLYLINE
5
F0
100
AcDbEntity
8
0
6
ByLayer
62
0
370
-1
100
AcDbPolyline
90
2
70
0
43
0
10
10.8968
20
3.98708
10
10.8968
20
3.67215
0
LWPOLYLINE
5
F1
100
AcDbEntity
8
0
6
ByLayer
62
0
370
-1
100
AcDbPolyline
90
2
70
0
43
0
10
12.1566
20
4.1511
10
11.8417
20
4.1511
0
LWPOLYLINE
5
F2
100
AcDbEntity
8
0
6
ByLayer
62
0
370
-1
100
AcDbPolyline
90
2
70
0
43
0
10
11.9992
20
4.56597
10
11.8417
20
4.56597
0
LWPOLYLINE
5
F3
100
AcDbEntity
8
0
6
ByLayer
62
0
370
-1
100
AcDbPolyline
90
2
70
0
43
0
10
11.9992
20
9.88021
10
11.8417
20
9.88021
0
LWPOLYLINE
5
F4
100
AcDbEntity
8
0
6
ByLayer
62
0
370
-1
100
AcDbPolyline
90
2
70
0
43
0
10
11.9992
20
9.88021
10
11.9992
20
9.4885
0
LWPOLYLINE
5
F5
100
AcDbEntity
8
0
6
ByLayer
62
0
370
-1
100
AcDbPolyline
90
9
70
0
43
0
10
11.9992
20
9.4885
10
12.1489
20
9.51872
10
12.2761
20
9.60325
10
12.3606
20
9.73053
10
12.3908
20
9.88021
10
12.3606
20
10.0299
10
12.2761
20
10.1572
10
12.1489
20
10.2418
10
11.9992
20
10.2719
0
LWPOLYLINE
5
F6
100
AcDbEntity
8
0
6
ByLayer
62
0
370
-1
100
AcDbPolyline
90
3
70
0
43
0
10
11.8417
20
10.2719
10
11.7182
20
10.2518
10
11.6072
20
10.194
0
LWPOLYLINE
5
F7
100
AcDbEntity
8
0
6
ByLayer
62
0
370
-1
100
AcDbPolyline
90
2
70
0
43
0
10
11.9992
20
10.2719
10
11.8417
20
10.2719
0
LWPOLYLINE
5
F8
100
AcDbEntity
8
0
6
ByLayer
62
0
370
-1
100
AcDbPolyline
90
2
70
0
43
0
10
11.0543
20
4.33128
10
11.0543
20
3.98708
0
LWPOLYLINE
5
F9
100
AcDbEntity
8
0
6
ByLayer
62
0
370
-1
100
AcDbPolyline
90
2
70
0
43
0
10
11.0543
20
4.33128
10
11.0377
20
4.40169
0
LWPOLYLINE
5
FA
100
AcDbEntity
8
0
6
ByLayer
62
0
370
-1
100
AcDbPolyline
90
2
70
0
43
0
10
11.6055
20
5.54947
10
11.8417
20
5.54947
0
LWPOLYLINE
5
FB
100
AcDbEntity
8
0
6
ByLayer
62
0
370
-1
100
AcDbPolyline
90
5
70
0
43
0
10
11.448
20
5.70697
10
11.4601
20
5.64681
10
11.4941
20
5.59565
10
11.5453
20
5.56164
10
11.6055
20
5.54947
0
LWPOLYLINE
5
FC
100
AcDbEntity
8
0
6
ByLayer
62
0
370
-1
100
AcDbPolyline
90
2
70
0
43
0
10
11.448
20
5.70697
10
11.448
20
7.36051
0
LWPOLYLINE
5
FD
100
AcDbEntity
8
0
6
ByLayer
62
0
370
-1
100
AcDbPolyline
90
2
70
0
43
0
10
11.6055
20
7.51801
10
11.8417
20
7.51801
0
LWPOLYLINE
5
FE
100
AcDbEntity
8
0
6
ByLayer
62
0
370
-1
100
AcDbPolyline
90
5
70
0
43
0
10
11.6055
20
7.51801
10
11.5453
20
7.50592
10
11.4941
20
7.4719
10
11.4601
20
7.42074
10
11.448
20
7.36051
0
LWPOLYLINE
5
FF
100
AcDbEntity
8
0
6
ByLayer
62
0
370
-1
100
AcDbPolyline
90
2
70
0
43
0
10
11.6072
20
10.194
10
10.7874
20
9.58128
0
LWPOLYLINE
5
100
100
AcDbEntity
8
0
6
ByLayer
62
0
370
-1
100
AcDbPolyline
90
3
70
0
43
0
10
10.507
20
9.44814
10
10.6538
20
9.50082
10
10.7874
20
9.58128
0
LWPOLYLINE
5
101
100
AcDbEntity
8
0
6
ByLayer
62
0
370
-1
100
AcDbPolyline
90
2
70
0
43
0
10
9.44129
20
9.18169
10
10.507
20
9.44814
0
LWPOLYLINE
5
102
100
AcDbEntity
8
0
6
ByLayer
62
0
370
-1
100
AcDbPolyline
90
5
70
0
43
0
10
9.44129
20
9.18169
10
9.39415
20
9.16054
10
9.35633
20
9.12511
10
9.33117
20
9.07981
10
9.32206
20
9.02892
0
LWPOLYLINE
5
103
100
AcDbEntity
8
0
6
ByLayer
62
0
370
-1
100
AcDbPolyline
90
2
70
0
43
0
10
9.32206
20
9.02892
10
9.322
20
8.36931
0
LWPOLYLINE
5
104
100
AcDbEntity
8
0
6
ByLayer
62
0
370
-1
100
AcDbPolyline
90
5
70
0
43
0
10
9.322
20
8.36931
10
9.33111
20
8.31847
10
9.35633
20
8.27317
10
9.39415
20
8.23774
10
9.44129
20
8.21653
0
LWPOLYLINE
5
105
100
AcDbEntity
8
0
6
ByLayer
62
0
370
-1
100
AcDbPolyline
90
2
70
0
43
0
10
10.0642
20
8.06082
10
9.44129
20
8.21653
0
LWPOLYLINE
5
106
100
AcDbEntity
8
0
6
ByLayer
62
0
370
-1
100
AcDbPolyline
90
9
70
0
43
0
10
10.6606
20
7.29693
10
10.6496
20
7.42681
10
10.6173
20
7.55306
10
10.5651
20
7.67242
10
10.4938
20
7.78153
10
10.4052
20
7.87711
10
10.3021
20
7.95676
10
10.1874
20
8.01867
10
10.0642
20
8.06082
0
LWPOLYLINE
5
107
100
AcDbEntity
8
0
6
ByLayer
62
0
370
-1
100
AcDbPolyline
90
2
70
0
43
0
10
10.6606
20
5.34169
10
10.6606
20
7.29693
0
LWPOLYLINE
5
108
100
AcDbEntity
8
0
6
ByLayer
62
0
370
-1
100
AcDbPolyline
90
2
70
0
43
0
10
11.0377
20
4.40169
10
10.7437
20
4.98953
0
LWPOLYLINE
5
109
100
AcDbEntity
8
0
6
ByLayer
62
0
370
-1
100
AcDbPolyline
90
3
70
0
43
0
10
10.6606
20
5.34169
10
10.6817
20
5.16081
10
10.7437
20
4.98953
0
LWPOLYLINE
5
10A
100
AcDbEntity
8
0
6
ByLayer
62
0
370
-1
100
AcDbPolyline
90
2
70
0
43
0
10
11.8417
20
9.88021
10
11.8417
20
7.51801
0
LWPOLYLINE
5
10B
100
AcDbEntity
8
0
6
ByLayer
62
0
370
-1
100
AcDbPolyline
90
2
70
0
43
0
10
11.8417
20
5.54947
10
11.8417
20
4.56597
0
LWPOLYLINE
5
10C
100
AcDbEntity
8
0
6
ByLayer
62
0
370
-1
100
AcDbPolyline
90
2
70
0
43
0
10
10.6025
20
9.06619
10
10.7801
20
9.12586
0
LWPOLYLINE
5
10D
100
AcDbEntity
8
0
6
ByLayer
62
0
370
-1
100
AcDbPolyline
90
9
70
0
43
0
10
11.0543
20
8.94488
10
11.0481
20
8.99289
10
11.0304
20
9.03792
10
11.0025
20
9.07758
10
10.9659
20
9.10915
10
10.9224
20
9.13043
10
10.8751
20
9.14046
10
10.8267
20
9.13906
10
10.7801
20
9.12586
0
LWPOLYLINE
5
10E
100
AcDbEntity
8
0
6
ByLayer
62
0
370
-1
100
AcDbPolyline
90
2
70
0
43
0
10
11.0543
20
8.94488
10
11.0543
20
8.26128
0
LWPOLYLINE
5
10F
100
AcDbEntity
8
0
6
ByLayer
62
0
370
-1
100
AcDbPolyline
90
5
70
0
43
0
10
10.7168
20
8.12354
10
10.5953
20
8.23139
10
10.4602
20
8.3215
10
10.3141
20
8.39253
10
10.1597
20
8.44276
0
LWPOLYLINE
5
110
100
AcDbEntity
8
0
6
ByLayer
62
0
370
-1
100
AcDbPolyline
90
9
70
0
43
0
10
10.7168
20
8.12354
10
10.7632
20
8.08908
10
10.8178
20
8.0695
10
10.8755
20
8.06586
10
10.9319
20
8.07904
10
10.9813
20
8.109
10
11.02
20
8.15207
10
11.0453
20
8.20421
10
11.0543
20
8.26128
0
LWPOLYLINE
5
111
100
AcDbEntity
8
0
6
ByLayer
62
0
370
-1
100
AcDbPolyline
90
2
70
0
43
0
10
9.83501
20
8.87429
10
10.6025
20
9.06619
0
LWPOLYLINE
5
112
100
AcDbEntity
8
0
6
ByLayer
62
0
370
-1
100
AcDbPolyline
90
5
70
0
43
0
10
9.83501
20
8.87429
10
9.78787
20
8.85314
10
9.75
20
8.81771
10
9.72483
20
8.7724
10
9.71571
20
8.72151
0
LWPOLYLINE
5
113
100
AcDbEntity
8
0
6
ByLayer
62
0
370
-1
100
AcDbPolyline
90
2
70
0
43
0
10
9.71571
20
8.72151
10
9.71571
20
8.67671
0
LWPOLYLINE
5
114
100
AcDbEntity
8
0
6
ByLayer
62
0
370
-1
100
AcDbPolyline
90
2
70
0
43
0
10
10.1597
20
8.44276
10
9.83501
20
8.52393
0
LWPOLYLINE
5
115
100
AcDbEntity
8
0
6
ByLayer
62
0
370
-1
100
AcDbPolyline
90
5
70
0
43
0
10
9.71571
20
8.67671
10
9.72483
20
8.62586
10
9.75
20
8.58057
10
9.78787
20
8.54514
10
9.83501
20
8.52393
0
LWPOLYLINE
5
116
100
AcDbEntity
8
0
6
ByLayer
62
0
370
-1
100
AcDbPolyline
90
2
70
0
43
0
10
11.0543
20
3.67215
10
11.0543
20
3.45281
0
LWPOLYLINE
5
117
100
AcDbEntity
8
0
6
ByLayer
62
0
370
-1
100
AcDbPolyline
90
2
70
0
43
0
10
11.8417
20
4.1511
10
11.8417
20
3.581
0
LWPOLYLINE
5
118
100
AcDbEntity
8
0
6
ByLayer
62
0
370
-1
100
AcDbPolyline
90
2
70
0
43
0
10
12.1566
20
2.87429
10
11.9991
20
2.87429
0
LWPOLYLINE
5
119
100
AcDbEntity
8
0
6
ByLayer
62
0
370
-1
100
AcDbPolyline
90
2
70
0
43
0
10
12.1566
20
2.87429
10
12.1566
20
2.63807
0
LWPOLYLINE
5
11A
100
AcDbEntity
8
0
6
ByLayer
62
0
370
-1
100
AcDbPolyline
90
2
70
0
43
0
10
11.9991
20
3.581
10
11.9991
20
2.87429
0
LWPOLYLINE
5
11B
100
AcDbEntity
8
0
6
ByLayer
62
0
370
-1
100
AcDbPolyline
90
2
70
0
43
0
10
11.9991
20
3.581
10
11.8417
20
3.581
0
LWPOLYLINE
5
11C
100
AcDbEntity
8
0
6
ByLayer
62
0
370
-1
100
AcDbPolyline
90
2
70
0
43
0
10
12.1566
20
2.63807
10
11.6055
20
2.63807
0
LWPOLYLINE
5
11D
100
AcDbEntity
8
0
6
ByLayer
62
0
370
-1
100
AcDbPolyline
90
2
70
0
43
0
10
11.4665
20
3.35715
10
11.6055
20
2.63807
0
LWPOLYLINE
5
11E
100
AcDbEntity
8
0
6
ByLayer
62
0
370
-1
100
AcDbPolyline
90
2
70
0
43
0
10
11.3505
20
3.45281
10
11.0543
20
3.45281
0
LWPOLYLINE
5
11F
100
AcDbEntity
8
0
6
ByLayer
62
0
370
-1
100
AcDbPolyline
90
5
70
0
43
0
10
11.4665
20
3.35715
10
11.4517
20
3.39464
10
11.425
20
3.42503
10
11.3901
20
3.44536
10
11.3505
20
3.45281
0
LWPOLYLINE
5
120
100
AcDbEntity
8
0
6
ByLayer
62
0
370
-1
100
AcDbPolyline
90
2
70
0
43
0
10
12.078
20
5.74561
10
11.9205
20
6.16054
0
LWPOLYLINE
5
121
100
AcDbEntity
8
0
6
ByLayer
62
0
370
-1
100
AcDbPolyline
90
2
70
0
43
0
10
13.0228
20
6.32454
10
13.1803
20
6.32454
0
LWPOLYLINE
5
122
100
AcDbEntity
8
0
6
ByLayer
62
0
370
-1
100
AcDbPolyline
90
2
70
0
43
0
10
13.0228
20
6.63949
10
13.1803
20
6.63949
0
LWPOLYLINE
5
123
100
AcDbEntity
8
0
6
ByLayer
62
0
370
-1
100
AcDbPolyline
90
2
70
0
43
0
10
13.1803
20
6.32454
10
13.1803
20
6.63949
0
LWPOLYLINE
5
124
100
AcDbEntity
8
0
6
ByLayer
62
0
370
-1
100
AcDbPolyline
90
2
70
0
43
0
10
11.9205
20
6.16054
10
12.2355
20
6.16054
0
LWPOLYLINE
5
125
100
AcDbEntity
8
0
6
ByLayer
62
0
370
-1
100
AcDbPolyline
90
2
70
0
43
0
10
12.078
20
5.74561
10
12.2355
20
5.74561
0
LWPOLYLINE
5
126
100
AcDbEntity
8
0
6
ByLayer
62
0
370
-1
100
AcDbPolyline
90
2
70
0
43
0
10
12.0779
20
0.431369
10
12.2354
20
0.431369
0
LWPOLYLINE
5
127
100
AcDbEntity
8
0
6
ByLayer
62
0
370
-1
100
AcDbPolyline
90
2
70
0
43
0
10
12.0779
20
0.431369
10
12.0779
20
0.823133
0
LWPOLYLINE
5
128
100
AcDbEntity
8
0
6
ByLayer
62
0
370
-1
100
AcDbPolyline
90
9
70
0
43
0
10
12.0779
20
0.823133
10
11.9283
20
0.79286
10
11.8012
20
0.708225
10
11.7167
20
0.581108
10
11.6866
20
0.431369
10
11.7167
20
0.281739
10
11.8012
20
0.154514
10
11.9282
20
0.0699869
10
12.0779
20
0.0396593
0
LWPOLYLINE
5
129
100
AcDbEntity
8
0
6
ByLayer
62
0
370
-1
100
AcDbPolyline
90
3
70
0
43
0
10
12.2354
20
0.0396593
10
12.3589
20
0.0598415
10
12.4699
20
0.117622
0
LWPOLYLINE
5
12A
100
AcDbEntity
8
0
6
ByLayer
62
0
370
-1
100
AcDbPolyline
90
2
70
0
43
0
10
12.0779
20
0.0396593
10
12.2354
20
0.0396593
0
LWPOLYLINE
5
12B
100
AcDbEntity
8
0
6
ByLayer
62
0
370
-1
100
AcDbPolyline
90
2
70
0
43
0
10
13.0228
20
5.98031
10
13.0228
20
6.32454
0
LWPOLYLINE
5
12C
100
AcDbEntity
8
0
6
ByLayer
62
0
370
-1
100
AcDbPolyline
90
2
70
0
43
0
10
13.0228
20
5.98031
10
13.0394
20
5.90989
0
LWPOLYLINE
5
12D
100
AcDbEntity
8
0
6
ByLayer
62
0
370
-1
100
AcDbPolyline
90
2
70
0
43
0
10
12.4716
20
4.7621
10
12.2354
20
4.7621
0
LWPOLYLINE
5
12E
100
AcDbEntity
8
0
6
ByLayer
62
0
370
-1
100
AcDbPolyline
90
5
70
0
43
0
10
12.6291
20
4.6046
10
12.617
20
4.66488
10
12.583
20
4.71599
10
12.5318
20
4.75
10
12.4716
20
4.7621
0
LWPOLYLINE
5
12F
100
AcDbEntity
8
0
6
ByLayer
62
0
370
-1
100
AcDbPolyline
90
2
70
0
43
0
10
12.6291
20
4.6046
10
12.6291
20
2.95107
0
LWPOLYLINE
5
130
100
AcDbEntity
8
0
6
ByLayer
62
0
370
-1
100
AcDbPolyline
90
2
70
0
43
0
10
12.4716
20
2.79363
10
12.2354
20
2.79363
0
LWPOLYLINE
5
131
100
AcDbEntity
8
0
6
ByLayer
62
0
370
-1
100
AcDbPolyline
90
5
70
0
43
0
10
12.4716
20
2.79363
10
12.5318
20
2.80578
10
12.583
20
2.83974
10
12.617
20
2.8909
10
12.6291
20
2.95107
0
LWPOLYLINE
5
132
100
AcDbEntity
8
0
6
ByLayer
62
0
370
-1
100
AcDbPolyline
90
2
70
0
43
0
10
12.4699
20
0.117622
10
13.2897
20
0.730306
0
LWPOLYLINE
5
133
100
AcDbEntity
8
0
6
ByLayer
62
0
370
-1
100
AcDbPolyline
90
3
70
0
43
0
10
13.5701
20
0.863499
10
13.4233
20
0.810818
10
13.2897
20
0.730306
0
LWPOLYLINE
5
134
100
AcDbEntity
8
0
6
ByLayer
62
0
370
-1
100
AcDbPolyline
90
2
70
0
43
0
10
14.6358
20
1.12994
10
13.5701
20
0.863499
0
LWPOLYLINE
5
135
100
AcDbEntity
8
0
6
ByLayer
62
0
370
-1
100
AcDbPolyline
90
5
70
0
43
0
10
14.6358
20
1.12994
10
14.6829
20
1.15115
10
14.7207
20
1.18658
10
14.746
20
1.23188
10
14.7551
20
1.28272
0
LWPOLYLINE
5
136
100
AcDbEntity
8
0
6
ByLayer
62
0
370
-1
100
AcDbPolyline
90
2
70
0
43
0
10
14.7551
20
1.28272
10
14.7551
20
1.94228
0
LWPOLYLINE
5
137
100
AcDbEntity
8
0
6
ByLayer
62
0
370
-1
100
AcDbPolyline
90
5
70
0
43
0
10
14.7551
20
1.94228
10
14.746
20
1.99317
10
14.7207
20
2.03847
10
14.6829
20
2.07389
10
14.6358
20
2.09506
0
LWPOLYLINE
5
138
100
AcDbEntity
8
0
6
ByLayer
62
0
370
-1
100
AcDbPolyline
90
2
70
0
43
0
10
14.0129
20
2.25082
10
14.6358
20
2.09506
0
LWPOLYLINE
5
139
100
AcDbEntity
8
0
6
ByLayer
62
0
370
-1
100
AcDbPolyline
90
9
70
0
43
0
10
13.4165
20
3.01471
10
13.4275
20
2.88488
10
13.4597
20
2.75863
10
13.512
20
2.63926
10
13.5833
20
2.53011
10
13.6718
20
2.43457
10
13.775
20
2.35487
10
13.8896
20
2.29297
10
14.0129
20
2.25082
0
LWPOLYLINE
5
13A
100
AcDbEntity
8
0
6
ByLayer
62
0
370
-1
100
AcDbPolyline
90
2
70
0
43
0
10
13.4165
20
4.96994
10
13.4165
20
3.01471
0
LWPOLYLINE
5
13B
100
AcDbEntity
8
0
6
ByLayer
62
0
370
-1
100
AcDbPolyline
90
2
70
0
43
0
10
13.0394
20
5.90989
10
13.3334
20
5.32206
0
LWPOLYLINE
5
13C
100
AcDbEntity
8
0
6
ByLayer
62
0
370
-1
100
AcDbPolyline
90
3
70
0
43
0
10
13.4165
20
4.96994
10
13.3953
20
5.15082
10
13.3334
20
5.32206
0
LWPOLYLINE
5
13D
100
AcDbEntity
8
0
6
ByLayer
62
0
370
-1
100
AcDbPolyline
90
2
70
0
43
0
10
12.2354
20
0.431369
10
12.2354
20
2.79363
0
LWPOLYLINE
5
13E
100
AcDbEntity
8
0
6
ByLayer
62
0
370
-1
100
AcDbPolyline
90
2
70
0
43
0
10
12.2354
20
4.7621
10
12.2355
20
5.74561
0
LWPOLYLINE
5
13F
100
AcDbEntity
8
0
6
ByLayer
62
0
370
-1
100
AcDbPolyline
90
2
70
0
43
0
10
13.4746
20
1.24544
10
13.297
20
1.18571
0
LWPOLYLINE
5
140
100
AcDbEntity
8
0
6
ByLayer
62
0
370
-1
100
AcDbPolyline
90
9
70
0
43
0
10
13.0228
20
1.36675
10
13.029
20
1.31879
10
13.0467
20
1.27371
10
13.0745
20
1.2341
10
13.1112
20
1.20247
10
13.1546
20
1.18126
10
13.202
20
1.17117
10
13.2504
20
1.17258
10
13.297
20
1.18571
0
LWPOLYLINE
5
141
100
AcDbEntity
8
0
6
ByLayer
62
0
370
-1
100
AcDbPolyline
90
2
70
0
43
0
10
13.0228
20
1.36675
10
13.0228
20
2.05029
0
LWPOLYLINE
5
142
100
AcDbEntity
8
0
6
ByLayer
62
0
370
-1
100
AcDbPolyline
90
5
70
0
43
0
10
13.3602
20
2.1881
10
13.4817
20
2.08029
10
13.6169
20
1.99013
10
13.763
20
1.91917
10
13.9174
20
1.86882
0
LWPOLYLINE
5
143
100
AcDbEntity
8
0
6
ByLayer
62
0
370
-1
100
AcDbPolyline
90
9
70
0
43
0
10
13.3602
20
2.1881
10
13.3138
20
2.2226
10
13.2593
20
2.24214
10
13.2015
20
2.24582
10
13.1452
20
2.23258
10
13.0958
20
2.20264
10
13.0571
20
2.15956
10
13.0318
20
2.10742
10
13.0228
20
2.05029
0
LWPOLYLINE
5
144
100
AcDbEntity
8
0
6
ByLayer
62
0
370
-1
100
AcDbPolyline
90
2
70
0
43
0
10
14.2421
20
1.43728
10
13.4746
20
1.24544
0
LWPOLYLINE
5
145
100
AcDbEntity
8
0
6
ByLayer
62
0
370
-1
100
AcDbPolyline
90
5
70
0
43
0
10
14.2421
20
1.43728
10
14.2892
20
1.45856
10
14.3271
20
1.49397
10
14.3522
20
1.53928
10
14.3614
20
1.59006
0
LWPOLYLINE
5
146
100
AcDbEntity
8
0
6
ByLayer
62
0
370
-1
100
AcDbPolyline
90
2
70
0
43
0
10
14.3614
20
1.59006
10
14.3614
20
1.63487
0
LWPOLYLINE
5
147
100
AcDbEntity
8
0
6
ByLayer
62
0
370
-1
100
AcDbPolyline
90
2
70
0
43
0
10
13.9174
20
1.86882
10
14.2421
20
1.78765
0
LWPOLYLINE
5
148
100
AcDbEntity
8
0
6
ByLayer
62
0
370
-1
100
AcDbPolyline
90
5
70
0
43
0
10
14.3614
20
1.63487
10
14.3522
20
1.68576
10
14.3271
20
1.73107
10
14.2892
20
1.7665
10
14.2421
20
1.78765
0
LWPOLYLINE
5
149
100
AcDbEntity
8
0
6
ByLayer
62
0
370
-1
100
AcDbPolyline
90
2
70
0
43
0
10
13.0228
20
6.63949
10
13.0228
20
6.85878
0
LWPOLYLINE
5
14A
100
AcDbEntity
8
0
6
ByLayer
62
0
370
-1
100
AcDbPolyline
90
2
70
0
43
0
10
12.2355
20
6.16054
10
12.2355
20
6.73058
0
LWPOLYLINE
5
14B
100
AcDbEntity
8
0
6
ByLayer
62
0
370
-1
100
AcDbPolyline
90
2
70
0
43
0
10
11.9205
20
7.43728
10
12.078
20
7.43728
0
LWPOLYLINE
5
14C
100
AcDbEntity
8
0
6
ByLayer
62
0
370
-1
100
AcDbPolyline
90
2
70
0
43
0
10
11.9205
20
7.43728
10
11.9205
20
7.6735
0
LWPOLYLINE
5
14D
100
AcDbEntity
8
0
6
ByLayer
62
0
370
-1
100
AcDbPolyline
90
2
70
0
43
0
10
12.078
20
6.73058
10
12.078
20
7.43728
0
LWPOLYLINE
5
14E
100
AcDbEntity
8
0
6
ByLayer
62
0
370
-1
100
AcDbPolyline
90
2
70
0
43
0
10
12.078
20
6.73058
10
12.2355
20
6.73058
0
LWPOLYLINE
5
14F
100
AcDbEntity
8
0
6
ByLayer
62
0
370
-1
100
AcDbPolyline
90
2
70
0
43
0
10
11.9205
20
7.6735
10
12.4716
20
7.6735
0
LWPOLYLINE
5
150
100
AcDbEntity
8
0
6
ByLayer
62
0
370
-1
100
AcDbPolyline
90
2
70
0
43
0
10
12.6106
20
6.95449
10
12.4716
20
7.6735
0
LWPOLYLINE
5
151
100
AcDbEntity
8
0
6
ByLayer
62
0
370
-1
100
AcDbPolyline
90
2
70
0
43
0
10
12.7266
20
6.85878
10
13.0228
20
6.85878
0
LWPOLYLINE
5
152
100
AcDbEntity
8
0
6
ByLayer
62
0
370
-1
100
AcDbPolyline
90
5
70
0
43
0
10
12.6106
20
6.95449
10
12.6254
20
6.91704
10
12.6521
20
6.88667
10
12.687
20
6.86626
10
12.7266
20
6.85878
0
LWPOLYLINE
5
153
100
AcDbEntity
8
0
6
ByLayer
62
0
370
-1
100
AcDbPolyline
90
2
70
0
43
0
10
14.755
20
4.56597
10
14.9125
20
4.1511
0
LWPOLYLINE
5
154
100
AcDbEntity
8
0
6
ByLayer
62
0
370
-1
100
AcDbPolyline
90
2
70
0
43
0
10
13.8102
20
3.98708
10
13.6527
20
3.98708
0
LWPOLYLINE
5
155
100
AcDbEntity
8
0
6
ByLayer
62
0
370
-1
100
AcDbPolyline
90
2
70
0
43
0
10
13.8102
20
3.67215
10
13.6527
20
3.67215
0
LWPOLYLINE
5
156
100
AcDbEntity
8
0
6
ByLayer
62
0
370
-1
100
AcDbPolyline
90
2
70
0
43
0
10
13.6527
20
3.98708
10
13.6527
20
3.67215
0
LWPOLYLINE
5
157
100
AcDbEntity
8
0
6
ByLayer
62
0
370
-1
100
AcDbPolyline
90
2
70
0
43
0
10
14.9125
20
4.1511
10
14.5976
20
4.1511
0
LWPOLYLINE
5
158
100
AcDbEntity
8
0
6
ByLayer
62
0
370
-1
100
AcDbPolyline
90
2
70
0
43
0
10
14.755
20
4.56597
10
14.5976
20
4.56597
0
LWPOLYLINE
5
159
100
AcDbEntity
8
0
6
ByLayer
62
0
370
-1
100
AcDbPolyline
90
2
70
0
43
0
10
14.7551
20
9.88021
10
14.5976
20
9.88021
0
LWPOLYLINE
5
15A
100
AcDbEntity
8
0
6
ByLayer
62
0
370
-1
100
AcDbPolyline
90
2
70
0
43
0
10
14.7551
20
9.88021
10
14.7551
20
9.4885
0
LWPOLYLINE
5
15B
100
AcDbEntity
8
0
6
ByLayer
62
0
370
-1
100
AcDbPolyline
90
9
70
0
43
0
10
14.7551
20
9.4885
10
14.9047
20
9.51872
10
15.0319
20
9.60325
10
15.1165
20
9.73053
10
15.1467
20
9.88021
10
15.1165
20
10.0299
10
15.0319
20
10.1572
10
14.9047
20
10.2418
10
14.7551
20
10.2719
0
LWPOLYLINE
5
15C
100
AcDbEntity
8
0
6
ByLayer
62
0
370
-1
100
AcDbPolyline
90
3
70
0
43
0
10
14.5976
20
10.2719
10
14.474
20
10.2518
10
14.3631
20
10.194
0
LWPOLYLINE
5
15D
100
AcDbEntity
8
0
6
ByLayer
62
0
370
-1
100
AcDbPolyline
90
2
70
0
43
0
10
14.7551
20
10.2719
10
14.5976
20
10.2719
0
LWPOLYLINE
5
15E
100
AcDbEntity
8
0
6
ByLayer
62
0
370
-1
100
AcDbPolyline
90
2
70
0
43
0
10
13.8102
20
4.33128
10
13.8102
20
3.98708
0
LWPOLYLINE
5
15F
100
AcDbEntity
8
0
6
ByLayer
62
0
370
-1
100
AcDbPolyline
90
2
70
0
43
0
10
13.8102
20
4.33128
10
13.7936
20
4.40169
0
LWPOLYLINE
5
160
100
AcDbEntity
8
0
6
ByLayer
62
0
370
-1
100
AcDbPolyline
90
2
70
0
43
0
10
14.3614
20
5.54947
10
14.5976
20
5.54947
0
LWPOLYLINE
5
161
100
AcDbEntity
8
0
6
ByLayer
62
0
370
-1
100
AcDbPolyline
90
5
70
0
43
0
10
14.2039
20
5.70697
10
14.216
20
5.64681
10
14.25
20
5.59565
10
14.3011
20
5.56164
10
14.3614
20
5.54947
0
LWPOLYLINE
5
162
100
AcDbEntity
8
0
6
ByLayer
62
0
370
-1
100
AcDbPolyline
90
2
70
0
43
0
10
14.2039
20
5.70697
10
14.2039
20
7.36051
0
LWPOLYLINE
5
163
100
AcDbEntity
8
0
6
ByLayer
62
0
370
-1
100
AcDbPolyline
90
2
70
0
43
0
10
14.3614
20
7.51801
10
14.5976
20
7.51801
0
LWPOLYLINE
5
164
100
AcDbEntity
8
0
6
ByLayer
62
0
370
-1
100
AcDbPolyline
90
5
70
0
43
0
10
14.3614
20
7.51801
10
14.3011
20
7.50592
10
14.25
20
7.4719
10
14.216
20
7.42074
10
14.2039
20
7.36051
0
LWPOLYLINE
5
165
100
AcDbEntity
8
0
6
ByLayer
62
0
370
-1
100
AcDbPolyline
90
2
70
0
43
0
10
14.3631
20
10.194
10
13.5433
20
9.58128
0
LWPOLYLINE
5
166
100
AcDbEntity
8
0
6
ByLayer
62
0
370
-1
100
AcDbPolyline
90
3
70
0
43
0
10
13.2629
20
9.44814
10
13.4097
20
9.50082
10
13.5433
20
9.58128
0
LWPOLYLINE
5
167
100
AcDbEntity
8
0
6
ByLayer
62
0
370
-1
100
AcDbPolyline
90
2
70
0
43
0
10
12.1972
20
9.18169
10
13.2629
20
9.44814
0
LWPOLYLINE
5
168
100
AcDbEntity
8
0
6
ByLayer
62
0
370
-1
100
AcDbPolyline
90
5
70
0
43
0
10
12.1972
20
9.18169
10
12.1501
20
9.16054
10
12.1122
20
9.12511
10
12.087
20
9.07981
10
12.0779
20
9.02892
0
LWPOLYLINE
5
169
100
AcDbEntity
8
0
6
ByLayer
62
0
370
-1
100
AcDbPolyline
90
2
70
0
43
0
10
12.0779
20
9.02892
10
12.0779
20
8.36931
0
LWPOLYLINE
5
16A
100
AcDbEntity
8
0
6
ByLayer
62
0
370
-1
100
AcDbPolyline
90
5
70
0
43
0
10
12.0779
20
8.36931
10
12.087
20
8.31847
10
12.1122
20
8.27317
10
12.1501
20
8.23774
10
12.1972
20
8.21653
0
LWPOLYLINE
5
16B
100
AcDbEntity
8
0
6
ByLayer
62
0
370
-1
100
AcDbPolyline
90
2
70
0
43
0
10
12.8201
20
8.06082
10
12.1972
20
8.21653
0
LWPOLYLINE
5
16C
100
AcDbEntity
8
0
6
ByLayer
62
0
370
-1
100
AcDbPolyline
90
9
70
0
43
0
10
13.4165
20
7.29693
10
13.4055
20
7.42681
10
13.3733
20
7.55306
10
13.321
20
7.67242
10
13.2497
20
7.78153
10
13.1611
20
7.87711
10
13.0581
20
7.95676
10
12.9434
20
8.01867
10
12.8201
20
8.06082
0
LWPOLYLINE
5
16D
100
AcDbEntity
8
0
6
ByLayer
62
0
370
-1
100
AcDbPolyline
90
2
70
0
43
0
10
13.4165
20
5.34169
10
13.4165
20
7.29693
0
LWPOLYLINE
5
16E
100
AcDbEntity
8
0
6
ByLayer
62
0
370
-1
100
AcDbPolyline
90
2
70
0
43
0
10
13.7936
20
4.40169
10
13.4996
20
4.98953
0
LWPOLYLINE
5
16F
100
AcDbEntity
8
0
6
ByLayer
62
0
370
-1
100
AcDbPolyline
90
3
70
0
43
0
10
13.4165
20
5.34169
10
13.4376
20
5.16081
10
13.4996
20
4.98953
0
LWPOLYLINE
5
170
100
AcDbEntity
8
0
6
ByLayer
62
0
370
-1
100
AcDbPolyline
90
2
70
0
43
0
10
14.5976
20
9.88021
10
14.5976
20
7.51801
0
LWPOLYLINE
5
171
100
AcDbEntity
8
0
6
ByLayer
62
0
370
-1
100
AcDbPolyline
90
2
70
0
43
0
10
14.5976
20
5.54947
10
14.5976
20
4.56597
0
LWPOLYLINE
5
172
100
AcDbEntity
8
0
6
ByLayer
62
0
370
-1
100
AcDbPolyline
90
2
70
0
43
0
10
13.3584
20
9.06619
10
13.536
20
9.12586
0
LWPOLYLINE
5
173
100
AcDbEntity
8
0
6
ByLayer
62
0
370
-1
100
AcDbPolyline
90
9
70
0
43
0
10
13.8102
20
8.94488
10
13.804
20
8.99289
10
13.7863
20
9.03792
10
13.7584
20
9.07758
10
13.7218
20
9.10915
10
13.6783
20
9.13043
10
13.631
20
9.14046
10
13.5826
20
9.13906
10
13.536
20
9.12586
0
LWPOLYLINE
5
174
100
AcDbEntity
8
0
6
ByLayer
62
0
370
-1
100
AcDbPolyline
90
2
70
0
43
0
10
13.8102
20
8.94488
10
13.8102
20
8.26128
0
LWPOLYLINE
5
175
100
AcDbEntity
8
0
6
ByLayer
62
0
370
-1
100
AcDbPolyline
90
5
70
0
43
0
10
13.4728
20
8.12354
10
13.3512
20
8.23139
10
13.2161
20
8.3215
10
13.07
20
8.39253
10
12.9156
20
8.44276
0
LWPOLYLINE
5
176
100
AcDbEntity
8
0
6
ByLayer
62
0
370
-1
100
AcDbPolyline
90
9
70
0
43
0
10
13.4728
20
8.12354
10
13.5192
20
8.08908
10
13.5737
20
8.0695
10
13.6315
20
8.06586
10
13.6878
20
8.07904
10
13.7372
20
8.109
10
13.7759
20
8.15207
10
13.8012
20
8.20421
10
13.8102
20
8.26128
0
LWPOLYLINE
5
177
100
AcDbEntity
8
0
6
ByLayer
62
0
370
-1
100
AcDbPolyline
90
2
70
0
43
0
10
12.5909
20
8.87429
10
13.3584
20
9.06619
0
LWPOLYLINE
5
178
100
AcDbEntity
8
0
6
ByLayer
62
0
370
-1
100
AcDbPolyline
90
5
70
0
43
0
10
12.5909
20
8.87429
10
12.5438
20
8.85314
10
12.5059
20
8.81771
10
12.4807
20
8.7724
10
12.4716
20
8.72151
0
LWPOLYLINE
5
179
100
AcDbEntity
8
0
6
ByLayer
62
0
370
-1
100
AcDbPolyline
90
2
70
0
43
0
10
12.4716
20
8.72151
10
12.4716
20
8.67671
0
LWPOLYLINE
5
17A
100
AcDbEntity
8
0
6
ByLayer
62
0
370
-1
100
AcDbPolyline
90
2
70
0
43
0
10
12.9156
20
8.44276
10
12.5909
20
8.52393
0
LWPOLYLINE
5
17B
100
AcDbEntity
8
0
6
ByLayer
62
0
370
-1
100
AcDbPolyline
90
5
70
0
43
0
10
12.4716
20
8.67671
10
12.4807
20
8.62586
10
12.5059
20
8.58057
10
12.5438
20
8.54514
10
12.5909
20
8.52393
0
LWPOLYLINE
5
17C
100
AcDbEntity
8
0
6
ByLayer
62
0
370
-1
100
AcDbPolyline
90
2
70
0
43
0
10
13.8102
20
3.67215
10
13.8102
20
3.45281
0
LWPOLYLINE
5
17D
100
AcDbEntity
8
0
6
ByLayer
62
0
370
-1
100
AcDbPolyline
90
2
70
0
43
0
10
14.5976
20
4.1511
10
14.5976
20
3.581
0
LWPOLYLINE
5
17E
100
AcDbEntity
8
0
6
ByLayer
62
0
370
-1
100
AcDbPolyline
90
2
70
0
43
0
10
14.9125
20
2.87429
10
14.755
20
2.87429
0
LWPOLYLINE
5
17F
100
AcDbEntity
8
0
6
ByLayer
62
0
370
-1
100
AcDbPolyline
90
2
70
0
43
0
10
14.9125
20
2.87429
10
14.9125
20
2.63807
0
LWPOLYLINE
5
180
100
AcDbEntity
8
0
6
ByLayer
62
0
370
-1
100
AcDbPolyline
90
2
70
0
43
0
10
14.755
20
3.581
10
14.755
20
2.87429
0
LWPOLYLINE
5
181
100
AcDbEntity
8
0
6
ByLayer
62
0
370
-1
100
AcDbPolyline
90
2
70
0
43
0
10
14.755
20
3.581
10
14.5976
20
3.581
0
LWPOLYLINE
5
182
100
AcDbEntity
8
0
6
ByLayer
62
0
370
-1
100
AcDbPolyline
90
2
70
0
43
0
10
14.9125
20
2.63807
10
14.3614
20
2.63807
0
LWPOLYLINE
5
183
100
AcDbEntity
8
0
6
ByLayer
62
0
370
-1
100
AcDbPolyline
90
2
70
0
43
0
10
14.2224
20
3.35715
10
14.3614
20
2.63807
0
LWPOLYLINE
5
184
100
AcDbEntity
8
0
6
ByLayer
62
0
370
-1
100
AcDbPolyline
90
2
70
0
43
0
10
14.1064
20
3.45281
10
13.8102
20
3.45281
0
LWPOLYLINE
5
185
100
AcDbEntity
8
0
6
ByLayer
62
0
370
-1
100
AcDbPolyline
90
5
70
0
43
0
10
14.2224
20
3.35715
10
14.2075
20
3.39464
10
14.1808
20
3.42503
10
14.146
20
3.44536
10
14.1064
20
3.45281
0
LWPOLYLINE
5
186
100
AcDbEntity
8
0
6
ByLayer
62
0
370
-1
100
AcDbPolyline
90
17
70
1
43
0
10
1.38482
20
0.902778
10
1.37961
20
0.926594
10
1.36567
20
0.946669
10
1.34559
20
0.960613
10
1.32183
20
0.965821
10
1.29807
20
0.960613
10
1.27794
20
0.946669
10
1.264
20
0.926594
10
1.25884
20
0.902778
10
1.26405
20
0.879069
10
1.27799
20
0.858942
10
1.29807
20
0.845053
10
1.32183
20
0.839844
10
1.34554
20
0.845053
10
1.36567
20
0.858942
10
1.37961
20
0.879069
10
1.38482
20
0.902778
0
LWPOLYLINE
5
187
100
AcDbEntity
8
0
6
ByLayer
62
0
370
-1
100
AcDbPolyline
90
17
70
1
43
0
10
1.93544
20
0.396431
10
1.93024
20
0.420247
10
1.91629
20
0.440321
10
1.89615
20
0.454264
10
1.87244
20
0.459472
10
1.84864
20
0.454264
10
1.82856
20
0.440321
10
1.81461
20
0.420247
10
1.80946
20
0.396431
10
1.81461
20
0.372721
10
1.82856
20
0.352593
10
1.84868
20
0.338704
10
1.87244
20
0.333496
10
1.89615
20
0.338704
10
1.91629
20
0.352593
10
1.93024
20
0.372721
10
1.93544
20
0.396431
0
LWPOLYLINE
5
188
100
AcDbEntity
8
0
6
ByLayer
62
0
370
-1
100
AcDbPolyline
90
17
70
1
43
0
10
1.87332
20
0.881401
10
1.86811
20
0.905219
10
1.85417
20
0.925347
10
1.8341
20
0.93929
10
1.81033
20
0.944444
10
1.78657
20
0.93929
10
1.76644
20
0.925347
10
1.7525
20
0.905219
10
1.74735
20
0.881401
10
1.75256
20
0.857693
10
1.7665
20
0.837619
10
1.78657
20
0.823676
10
1.81033
20
0.818468
10
1.83404
20
0.823676
10
1.85417
20
0.837619
10
1.86811
20
0.857693
10
1.87332
20
0.881401
0
LWPOLYLINE
5
189
100
AcDbEntity
8
0
6
ByLayer
62
0
370
-1
100
AcDbPolyline
90
17
70
1
43
0
10
1.44694
20
0.417751
10
1.44174
20
0.441569
10
1.42779
20
0.461643
10
1.40767
20
0.475586
10
1.38395
20
0.480794
10
1.36013
20
0.475586
10
1.34006
20
0.461643
10
1.32612
20
0.441569
10
1.32096
20
0.417751
10
1.32612
20
0.394043
10
1.34006
20
0.373969
10
1.36019
20
0.360026
10
1.38395
20
0.354818
10
1.40767
20
0.360026
10
1.42779
20
0.373969
10
1.44174
20
0.394043
10
1.44694
20
0.417751
0
LWPOLYLINE
5
18A
100
AcDbEntity
8
0
6
ByLayer
62
0
370
-1
100
AcDbPolyline
90
17
70
1
43
0
10
1.75461
20
0.649576
10
1.74246
20
0.709799
10
1.7085
20
0.76096
10
1.65733
20
0.794976
10
1.59717
20
0.807075
10
1.53689
20
0.794976
10
1.48579
20
0.76096
10
1.45176
20
0.709799
10
1.43967
20
0.649576
10
1.45176
20
0.58941
10
1.48579
20
0.538249
10
1.53689
20
0.504286
10
1.59717
20
0.492133
10
1.65733
20
0.504286
10
1.7085
20
0.538249
10
1.74246
20
0.58941
10
1.75461
20
0.649576
0
LWPOLYLINE
5
18B
100
AcDbEntity
8
0
6
ByLayer
62
0
370
-1
100
AcDbPolyline
90
17
70
1
43
0
10
4.92817
20
2.4776
10
4.9229
20
2.50136
10
4.90901
20
2.52149
10
4.88889
20
2.53537
10
4.86513
20
2.54058
10
4.84136
20
2.53537
10
4.82124
20
2.52149
10
4.80735
20
2.50136
10
4.80214
20
2.4776
10
4.80735
20
2.45383
10
4.82124
20
2.43371
10
4.84136
20
2.41982
10
4.86513
20
2.41456
10
4.88889
20
2.41982
10
4.90901
20
2.43371
10
4.9229
20
2.45383
10
4.92817
20
2.4776
0
LWPOLYLINE
5
18C
100
AcDbEntity
8
0
6
ByLayer
62
0
370
-1
100
AcDbPolyline
90
17
70
1
43
0
10
5.47874
20
1.97125
10
5.47353
20
1.99507
10
5.45958
20
2.01514
10
5.43951
20
2.02908
10
5.41575
20
2.03429
10
5.39199
20
2.02908
10
5.37185
20
2.01514
10
5.35792
20
1.99507
10
5.35275
20
1.97125
10
5.35796
20
1.94754
10
5.3719
20
1.9274
10
5.39199
20
1.91347
10
5.41575
20
1.90826
10
5.43946
20
1.91347
10
5.45958
20
1.9274
10
5.47353
20
1.94754
10
5.47874
20
1.97125
0
LWPOLYLINE
5
18D
100
AcDbEntity
8
0
6
ByLayer
62
0
370
-1
100
AcDbPolyline
90
17
70
1
43
0
10
5.41667
20
2.45622
10
5.4114
20
2.47999
10
5.39751
20
2.50011
10
5.37739
20
2.51406
10
5.35363
20
2.51921
10
5.32986
20
2.51406
10
5.30974
20
2.50011
10
5.29585
20
2.47999
10
5.29064
20
2.45622
10
5.29585
20
2.43251
10
5.30974
20
2.41237
10
5.32986
20
2.39844
10
5.35363
20
2.39322
10
5.37739
20
2.39844
10
5.39751
20
2.41237
10
5.4114
20
2.43251
10
5.41667
20
2.45622
0
LWPOLYLINE
5
18E
100
AcDbEntity
8
0
6
ByLayer
62
0
370
-1
100
AcDbPolyline
90
17
70
1
43
0
10
4.99024
20
1.99257
10
4.98503
20
2.01639
10
4.97108
20
2.03646
10
4.95101
20
2.0504
10
4.92725
20
2.05561
10
4.90349
20
2.0504
10
4.88336
20
2.03646
10
4.86942
20
2.01639
10
4.86426
20
1.99257
10
4.86947
20
1.96886
10
4.8834
20
1.94874
10
4.90349
20
1.93485
10
4.92725
20
1.92964
10
4.95096
20
1.93485
10
4.97108
20
1.94874
10
4.98503
20
1.96886
10
4.99024
20
1.99257
0
LWPOLYLINE
5
18F
100
AcDbEntity
8
0
6
ByLayer
62
0
370
-1
100
AcDbPolyline
90
17
70
1
43
0
10
5.29796
20
2.22439
10
5.28581
20
2.28461
10
5.25179
20
2.33578
10
5.20063
20
2.36979
10
5.14046
20
2.38189
10
5.08024
20
2.36979
10
5.02908
20
2.33578
10
4.99507
20
2.28461
10
4.98296
20
2.22439
10
4.99507
20
2.16422
10
5.02908
20
2.11307
10
5.08024
20
2.07904
10
5.14046
20
2.06689
10
5.20063
20
2.07904
10
5.25179
20
2.11307
10
5.28581
20
2.16422
10
5.29796
20
2.22439
0
LWPOLYLINE
5
190
100
AcDbEntity
8
0
6
ByLayer
62
0
370
-1
100
AcDbPolyline
90
17
70
1
43
0
10
5.4566
20
3.52387
10
5.45139
20
3.54769
10
5.4375
20
3.56782
10
5.41737
20
3.58176
10
5.39361
20
3.58692
10
5.36985
20
3.58176
10
5.34972
20
3.56782
10
5.33578
20
3.54769
10
5.33062
20
3.52387
10
5.33583
20
3.50017
10
5.34978
20
3.48008
10
5.36985
20
3.46614
10
5.39361
20
3.46094
10
5.41732
20
3.46614
10
5.43744
20
3.48008
10
5.45139
20
3.50017
10
5.4566
20
3.52387
0
LWPOLYLINE
5
191
100
AcDbEntity
8
0
6
ByLayer
62
0
370
-1
100
AcDbPolyline
90
17
70
1
43
0
10
4.95025
20
4.07449
10
4.94504
20
4.09831
10
4.93115
20
4.11838
10
4.91103
20
4.13232
10
4.88726
20
4.13753
10
4.8635
20
4.13232
10
4.84337
20
4.11838
10
4.82943
20
4.09831
10
4.82428
20
4.07449
10
4.82949
20
4.05078
10
4.84343
20
4.03071
10
4.8635
20
4.01676
10
4.88726
20
4.01156
10
4.91097
20
4.01676
10
4.9311
20
4.03071
10
4.94504
20
4.05078
10
4.95025
20
4.07449
0
LWPOLYLINE
5
192
100
AcDbEntity
8
0
6
ByLayer
62
0
370
-1
100
AcDbPolyline
90
17
70
1
43
0
10
5.43528
20
4.01243
10
5.43007
20
4.03618
10
5.41613
20
4.05632
10
5.396
20
4.07021
10
5.37229
20
4.07542
10
5.34853
20
4.07021
10
5.3284
20
4.05632
10
5.31446
20
4.03618
10
5.30931
20
4.01243
10
5.31446
20
3.98867
10
5.3284
20
3.96853
10
5.34853
20
3.95464
10
5.37229
20
3.94938
10
5.396
20
3.95464
10
5.41613
20
3.96853
10
5.43007
20
3.98867
10
5.43528
20
4.01243
0
LWPOLYLINE
5
193
100
AcDbEntity
8
0
6
ByLayer
62
0
370
-1
100
AcDbPolyline
90
17
70
1
43
0
10
4.97163
20
3.58599
10
4.96642
20
3.60981
10
4.95247
20
3.62989
10
4.93235
20
3.64382
10
4.90864
20
3.64903
10
4.88482
20
3.64382
10
4.86469
20
3.62989
10
4.85081
20
3.60981
10
4.84565
20
3.58599
10
4.85081
20
3.56222
10
4.86469
20
3.5421
10
4.88482
20
3.52821
10
4.90864
20
3.52294
10
4.93235
20
3.52821
10
4.95247
20
3.5421
10
4.96642
20
3.56222
10
4.97163
20
3.58599
0
LWPOLYLINE
5
194
100
AcDbEntity
8
0
6
ByLayer
62
0
370
-1
100
AcDbPolyline
90
17
70
1
43
0
10
5.29796
20
3.79921
10
5.28581
20
3.85943
10
5.25179
20
3.91054
10
5.20063
20
3.94461
10
5.14046
20
3.95671
10
5.08024
20
3.94461
10
5.02908
20
3.91054
10
4.99507
20
3.85943
10
4.98296
20
3.79921
10
4.99507
20
3.73904
10
5.02908
20
3.68782
10
5.08024
20
3.65386
10
5.14046
20
3.64171
10
5.20063
20
3.65386
10
5.25179
20
3.68782
10
5.28581
20
3.73904
10
5.29796
20
3.79921
0
LWPOLYLINE
5
195
100
AcDbEntity
8
0
6
ByLayer
62
0
370
-1
100
AcDbPolyline
90
17
70
1
43
0
10
1.91331
20
5.09868
10
1.9081
20
5.1225
10
1.89415
20
5.14258
10
1.87403
20
5.15653
10
1.85032
20
5.16174
10
1.82656
20
5.15653
10
1.80642
20
5.14258
10
1.79249
20
5.1225
10
1.78733
20
5.09868
10
1.79249
20
5.07493
10
1.80642
20
5.05479
10
1.82656
20
5.0409
10
1.85032
20
5.03564
10
1.87403
20
5.0409
10
1.89415
20
5.05479
10
1.9081
20
5.07493
10
1.91331
20
5.09868
0
LWPOLYLINE
5
196
100
AcDbEntity
8
0
6
ByLayer
62
0
370
-1
100
AcDbPolyline
90
17
70
1
43
0
10
1.40696
20
5.64931
10
1.40175
20
5.67312
10
1.3878
20
5.69319
10
1.36773
20
5.70714
10
1.34397
20
5.71235
10
1.3202
20
5.70714
10
1.30008
20
5.69319
10
1.28613
20
5.67312
10
1.28098
20
5.64931
10
1.28613
20
5.6256
10
1.30008
20
5.60547
10
1.3202
20
5.59158
10
1.34397
20
5.58637
10
1.36768
20
5.59158
10
1.3878
20
5.60547
10
1.40175
20
5.6256
10
1.40696
20
5.64931
0
LWPOLYLINE
5
197
100
AcDbEntity
8
0
6
ByLayer
62
0
370
-1
100
AcDbPolyline
90
17
70
1
43
0
10
1.89199
20
5.58718
10
1.88678
20
5.611
10
1.87283
20
5.63108
10
1.85271
20
5.64501
10
1.829
20
5.65022
10
1.80518
20
5.64501
10
1.7851
20
5.63108
10
1.77115
20
5.611
10
1.766
20
5.58718
10
1.77115
20
5.56347
10
1.7851
20
5.54335
10
1.80518
20
5.5294
10
1.829
20
5.52419
10
1.85271
20
5.5294
10
1.87283
20
5.54335
10
1.88678
20
5.56347
10
1.89199
20
5.58718
0
LWPOLYLINE
5
198
100
AcDbEntity
8
0
6
ByLayer
62
0
370
-1
100
AcDbPolyline
90
17
70
1
43
0
10
1.42828
20
5.16081
10
1.42307
20
5.18463
10
1.40918
20
5.20469
10
1.38906
20
5.21864
10
1.36529
20
5.22385
10
1.34152
20
5.21864
10
1.3214
20
5.20469
10
1.30745
20
5.18463
10
1.3023
20
5.16081
10
1.30745
20
5.13704
10
1.3214
20
5.11692
10
1.34152
20
5.10303
10
1.36529
20
5.09776
10
1.38906
20
5.10303
10
1.40918
20
5.11692
10
1.42307
20
5.13704
10
1.42828
20
5.16081
0
LWPOLYLINE
5
199
100
AcDbEntity
8
0
6
ByLayer
62
0
370
-1
100
AcDbPolyline
90
17
70
1
43
0
10
1.75461
20
5.37403
10
1.74246
20
5.43425
10
1.7085
20
5.48535
10
1.65733
20
5.51937
10
1.59717
20
5.53147
10
1.53689
20
5.51937
10
1.48579
20
5.48535
10
1.45176
20
5.43425
10
1.43967
20
5.37403
10
1.45176
20
5.31381
10
1.48579
20
5.26264
10
1.53689
20
5.22868
10
1.59717
20
5.21653
10
1.65733
20
5.22868
10
1.7085
20
5.26264
10
1.74246
20
5.31381
10
1.75461
20
5.37403
0
LWPOLYLINE
5
19A
100
AcDbEntity
8
0
6
ByLayer
62
0
370
-1
100
AcDbPolyline
90
2
70
0
43
0
10
3.76247
20
8.91732
10
4.94358
20
10.0984
0
LWPOLYLINE
5
19B
100
AcDbEntity
8
0
6
ByLayer
62
0
370
-1
100
AcDbPolyline
90
2
70
0
43
0
10
4.94358
20
10.0984
10
6.51839
20
10.0984
0
LWPOLYLINE
5
19C
100
AcDbEntity
8
0
6
ByLayer
62
0
370
-1
100
AcDbPolyline
90
2
70
0
43
0
10
6.51839
20
10.0984
10
7.69949
20
8.91732
0
LWPOLYLINE
5
19D
100
AcDbEntity
8
0
6
ByLayer
62
0
370
-1
100
AcDbPolyline
90
2
70
0
43
0
10
7.69949
20
8.91732
10
7.69949
20
7.3425
0
LWPOLYLINE
5
19E
100
AcDbEntity
8
0
6
ByLayer
62
0
370
-1
100
AcDbPolyline
90
2
70
0
43
0
10
7.69949
20
7.3425
10
6.51839
20
6.1614
0
LWPOLYLINE
5
19F
100
AcDbEntity
8
0
6
ByLayer
62
0
370
-1
100
AcDbPolyline
90
2
70
0
43
0
10
6.51839
20
6.1614
10
4.94358
20
6.1614
0
LWPOLYLINE
5
1A0
100
AcDbEntity
8
0
6
ByLayer
62
0
370
-1
100
AcDbPolyline
90
2
70
0
43
0
10
4.94358
20
6.1614
10
3.76247
20
7.3425
0
LWPOLYLINE
5
1A1
100
AcDbEntity
8
0
6
ByLayer
62
0
370
-1
100
AcDbPolyline
90
2
70
0
43
0
10
3.76247
20
7.3425
10
3.76247
20
8.91732
0
LWPOLYLINE
5
1A2
100
AcDbEntity
8
0
6
ByLayer
62
0
370
-1
100
AcDbPolyline
90
17
70
1
43
0
10
6.99083
20
9.31104
10
6.98432
20
9.34076
10
6.9669
20
9.36589
10
6.94179
20
9.38331
10
6.91211
20
9.38981
10
6.88238
20
9.38331
10
6.85726
20
9.36589
10
6.83985
20
9.34076
10
6.83339
20
9.31104
10
6.83985
20
9.28136
10
6.85726
20
9.25624
10
6.88243
20
9.23887
10
6.91211
20
9.23236
10
6.94174
20
9.23887
10
6.96685
20
9.25624
10
6.98426
20
9.28136
10
6.99083
20
9.31104
0
LWPOLYLINE
5
1A3
100
AcDbEntity
8
0
6
ByLayer
62
0
370
-1
100
AcDbPolyline
90
17
70
1
43
0
10
6.99083
20
6.94878
10
6.98432
20
6.97857
10
6.9669
20
7.00369
10
6.94179
20
7.02111
10
6.91211
20
7.02761
10
6.88238
20
7.02111
10
6.85726
20
7.00369
10
6.83985
20
6.97857
10
6.83339
20
6.94878
10
6.83985
20
6.91917
10
6.85726
20
6.89404
10
6.88243
20
6.87668
10
6.91211
20
6.87017
10
6.94174
20
6.87668
10
6.96685
20
6.89404
10
6.98426
20
6.91917
10
6.99083
20
6.94878
0
LWPOLYLINE
5
1A4
100
AcDbEntity
8
0
6
ByLayer
62
0
370
-1
100
AcDbPolyline
90
17
70
1
43
0
10
4.62864
20
6.94878
10
4.62213
20
6.97851
10
4.60471
20
7.00364
10
4.57958
20
7.02106
10
4.54992
20
7.02756
10
4.52018
20
7.02106
10
4.49507
20
7.00364
10
4.47765
20
6.97851
10
4.47114
20
6.94878
10
4.47765
20
6.91911
10
4.49507
20
6.89399
10
4.52018
20
6.87657
10
4.54992
20
6.87007
10
4.57958
20
6.87657
10
4.60471
20
6.89399
10
4.62213
20
6.91911
10
4.62864
20
6.94878
0
LWPOLYLINE
5
1A5
100
AcDbEntity
8
0
6
ByLayer
62
0
370
-1
100
AcDbPolyline
90
17
70
1
43
0
10
4.62864
20
9.31104
10
4.62213
20
9.34071
10
4.60471
20
9.36589
10
4.57958
20
9.38331
10
4.54992
20
9.38975
10
4.52018
20
9.38331
10
4.49507
20
9.36589
10
4.47765
20
9.34071
10
4.47114
20
9.31104
10
4.47765
20
9.28136
10
4.49507
20
9.25618
10
4.52018
20
9.23876
10
4.54992
20
9.23226
10
4.57958
20
9.23876
10
4.60471
20
9.25618
10
4.62213
20
9.28136
10
4.62864
20
9.31104
0
LWPOLYLINE
5
1A6
100
AcDbEntity
8
0
6
ByLayer
62
0
370
-1
100
AcDbPolyline
90
2
70
0
43
0
10
5.37181
20
7.53722
10
5.4784
20
7.42133
0
LWPOLYLINE
5
1A7
100
AcDbEntity
8
0
6
ByLayer
62
0
370
-1
100
AcDbPolyline
90
2
70
0
43
0
10
5.4784
20
7.42133
10
5.65229
20
7.58122
0
LWPOLYLINE
5
1A8
100
AcDbEntity
8
0
6
ByLayer
62
0
370
-1
100
AcDbPolyline
90
2
70
0
43
0
10
5.65229
20
7.58122
10
5.54568
20
7.69715
0
LWPOLYLINE
5
1A9
100
AcDbEntity
8
0
6
ByLayer
62
0
370
-1
100
AcDbPolyline
90
2
70
0
43
0
10
5.54568
20
7.69715
10
5.37181
20
7.53722
0
LWPOLYLINE
5
1AA
100
AcDbEntity
8
0
6
ByLayer
62
0
370
-1
100
AcDbPolyline
90
2
70
0
43
0
10
6.09022
20
7.53722
10
5.98361
20
7.42133
0
LWPOLYLINE
5
1AB
100
AcDbEntity
8
0
6
ByLayer
62
0
370
-1
100
AcDbPolyline
90
2
70
0
43
0
10
5.98361
20
7.42133
10
5.80974
20
7.58122
0
LWPOLYLINE
5
1AC
100
AcDbEntity
8
0
6
ByLayer
62
0
370
-1
100
AcDbPolyline
90
2
70
0
43
0
10
5.80974
20
7.58122
10
5.91635
20
7.69715
0
LWPOLYLINE
5
1AD
100
AcDbEntity
8
0
6
ByLayer
62
0
370
-1
100
AcDbPolyline
90
2
70
0
43
0
10
5.91635
20
7.69715
10
6.09022
20
7.53722
0
LWPOLYLINE
5
1AE
100
AcDbEntity
8
0
6
ByLayer
62
0
370
-1
100
AcDbPolyline
90
2
70
0
43
0
10
5.37181
20
8.7226
10
5.4784
20
8.83849
0
LWPOLYLINE
5
1AF
100
AcDbEntity
8
0
6
ByLayer
62
0
370
-1
100
AcDbPolyline
90
2
70
0
43
0
10
5.4784
20
8.83849
10
5.65229
20
8.6786
0
LWPOLYLINE
5
1B0
100
AcDbEntity
8
0
6
ByLayer
62
0
370
-1
100
AcDbPolyline
90
2
70
0
43
0
10
5.65229
20
8.6786
10
5.54568
20
8.56267
0
LWPOLYLINE
5
1B1
100
AcDbEntity
8
0
6
ByLayer
62
0
370
-1
100
AcDbPolyline
90
2
70
0
43
0
10
5.54568
20
8.56267
10
5.37181
20
8.7226
0
LWPOLYLINE
5
1B2
100
AcDbEntity
8
0
6
ByLayer
62
0
370
-1
100
AcDbPolyline
90
2
70
0
43
0
10
6.09022
20
8.7226
10
5.98361
20
8.83849
0
LWPOLYLINE
5
1B3
100
AcDbEntity
8
0
6
ByLayer
62
0
370
-1
100
AcDbPolyline
90
2
70
0
43
0
10
5.98361
20
8.83849
10
5.80974
20
8.6786
0
LWPOLYLINE
5
1B4
100
AcDbEntity
8
0
6
ByLayer
62
0
370
-1
100
AcDbPolyline
90
2
70
0
43
0
10
5.80974
20
8.6786
10
5.91635
20
8.56267
0
LWPOLYLINE
5
1B5
100
AcDbEntity
8
0
6
ByLayer
62
0
370
-1
100
AcDbPolyline
90
2
70
0
43
0
10
5.91635
20
8.56267
10
6.09022
20
8.7226
0
ENDSEC
0
SECTION
2
OBJECTS
0
DICTIONARY
5
C
330
0
100
AcDbDictionary
281
1
3
ACAD_GROUP
350
D
0
DICTIONARY
5
D
330
C
100
AcDbDictionary
281
1
0
ENDSEC
0
EOF
